<?xml version="1.0" encoding="UTF-8" standalone="no"?>
<!DOCTYPE svg PUBLIC "-//W3C//DTD SVG 1.1//EN" "http://www.w3.org/Graphics/SVG/1.1/DTD/svg11.dtd">
<svg width="100%" height="100%" viewBox="0 0 184 317" version="1.1" xmlns="http://www.w3.org/2000/svg" xmlns:xlink="http://www.w3.org/1999/xlink" xml:space="preserve" xmlns:serif="http://www.serif.com/" style="fill-rule:evenodd;clip-rule:evenodd;stroke-linejoin:round;stroke-miterlimit:2;">
    <g transform="matrix(1,0,0,1,-13296.9,-22337.1)">
        <g transform="matrix(8.33333,0,0,8.33333,0,0)">
            <g transform="matrix(1,0,0,1,1599,2717.69)">
                <path d="M0,-36.696C-0.803,-37.454 -2.068,-37.419 -2.827,-36.615C-3.585,-35.812 -3.549,-34.547 -2.746,-33.788L13.715,-18.242L-2.746,-2.696C-3.549,-1.938 -3.585,-0.672 -2.827,0.131C-2.434,0.548 -1.904,0.758 -1.372,0.758C-0.88,0.758 -0.386,0.576 0,0.212L18,-16.788C18.4,-17.166 18.627,-17.692 18.627,-18.242C18.627,-18.793 18.4,-19.318 18,-19.696L0,-36.696Z" style="fill:rgb(72,127,137);fill-rule:nonzero;"/>
            </g>
        </g>
    </g>
</svg>
