<?xml version="1.0" encoding="UTF-8" standalone="no"?>
<!DOCTYPE svg PUBLIC "-//W3C//DTD SVG 1.1//EN" "http://www.w3.org/Graphics/SVG/1.1/DTD/svg11.dtd">
<svg width="100%" height="100%" viewBox="0 0 80 80" version="1.1" xmlns="http://www.w3.org/2000/svg" xmlns:xlink="http://www.w3.org/1999/xlink" xml:space="preserve" xmlns:serif="http://www.serif.com/" style="fill-rule:evenodd;clip-rule:evenodd;stroke-linejoin:round;stroke-miterlimit:2;">
    <g transform="matrix(1,0,0,1,-2223.12,-2113.55)">
        <g transform="matrix(4.16667,0,0,4.16667,0,0)">
            <g transform="matrix(1,0,0,1,550.209,508.689)">
                <path d="M0,16.167L-4.513,11.653L-3.57,10.71L0.944,15.223L0,16.167ZM-15.47,4.811C-15.47,2.022 -13.201,-0.247 -10.412,-0.247C-7.624,-0.247 -5.355,2.022 -5.355,4.811C-5.355,7.6 -7.624,9.868 -10.412,9.868C-13.201,9.868 -15.47,7.6 -15.47,4.811M-3.149,9.448C-3.381,9.215 -3.758,9.215 -3.99,9.448L-4.462,9.919L-5.596,8.786C-4.703,7.705 -4.165,6.319 -4.165,4.811C-4.165,1.366 -6.967,-1.437 -10.412,-1.437C-13.857,-1.437 -16.66,1.366 -16.66,4.811C-16.66,8.256 -13.857,11.058 -10.412,11.058C-8.903,11.058 -7.519,10.521 -6.437,9.627L-5.304,10.761L-5.775,11.232C-6.008,11.465 -6.008,11.842 -5.775,12.074L-0.42,17.429C-0.304,17.545 -0.152,17.604 0,17.604C0.152,17.604 0.305,17.545 0.421,17.429L2.206,15.644C2.438,15.412 2.438,15.035 2.206,14.803L-3.149,9.448Z" style="fill:rgb(86,145,153);fill-rule:nonzero;"/>
            </g>
        </g>
    </g>
</svg>
