<?xml version="1.0" encoding="UTF-8" standalone="no"?>
<!DOCTYPE svg PUBLIC "-//W3C//DTD SVG 1.1//EN" "http://www.w3.org/Graphics/SVG/1.1/DTD/svg11.dtd">
<svg width="100%" height="100%" viewBox="0 0 78 89" version="1.1" xmlns="http://www.w3.org/2000/svg" xmlns:xlink="http://www.w3.org/1999/xlink" xml:space="preserve" xmlns:serif="http://www.serif.com/" style="fill-rule:evenodd;clip-rule:evenodd;stroke-linejoin:round;stroke-miterlimit:2;">
    <g transform="matrix(1,0,0,1,-243.652,-1421.65)">
        <g transform="matrix(2.66667,0,0,2.66667,0,0)">
            <g transform="matrix(1,0,0,1,116.611,560.58)">
                <path d="M0,-21.74L-10.682,-12.702L-21.362,-21.74L0,-21.74ZM-25.178,-23.137C-25.328,-22.728 -25.206,-22.268 -24.873,-21.986L-11.722,-10.857L-11.722,3.74L-17.441,3.74C-18.016,3.74 -18.481,4.206 -18.481,4.781C-18.481,5.355 -18.016,5.821 -17.441,5.821L-3.921,5.821C-3.347,5.821 -2.881,5.355 -2.881,4.781C-2.881,4.206 -3.347,3.74 -3.921,3.74L-9.642,3.74L-9.642,-10.857L3.511,-21.986C3.844,-22.268 3.966,-22.728 3.815,-23.137C3.665,-23.548 3.275,-23.82 2.838,-23.82L-4.531,-23.82L-2.666,-25.684C-2.26,-26.091 -2.26,-26.749 -2.666,-27.155C-3.073,-27.561 -3.73,-27.561 -4.137,-27.155L-7.257,-24.035C-7.322,-23.969 -7.373,-23.896 -7.417,-23.82L-24.202,-23.82C-24.637,-23.82 -25.027,-23.548 -25.178,-23.137" style="fill:rgb(74,224,199);fill-rule:nonzero;"/>
            </g>
        </g>
    </g>
</svg>
