<?xml version="1.0" encoding="UTF-8" standalone="no"?>
<!DOCTYPE svg PUBLIC "-//W3C//DTD SVG 1.1//EN" "http://www.w3.org/Graphics/SVG/1.1/DTD/svg11.dtd">
<svg width="100%" height="100%" viewBox="0 0 67 89" version="1.1" xmlns="http://www.w3.org/2000/svg" xmlns:xlink="http://www.w3.org/1999/xlink" xml:space="preserve" xmlns:serif="http://www.serif.com/" style="fill-rule:evenodd;clip-rule:evenodd;stroke-linejoin:round;stroke-miterlimit:2;">
    <g transform="matrix(1,0,0,1,-249.2,-1229.97)">
        <g transform="matrix(2.66667,0,0,2.66667,0,0)">
            <g transform="matrix(1,0,0,1,0,-310.24)">
                <path d="M103.33,773.56L108.53,773.56L108.53,775.64L103.33,775.64L103.33,773.56ZM114.25,802.68L97.61,802.68L97.61,777.72L114.25,777.72L114.25,802.68ZM109.57,771.48L102.29,771.48C101.716,771.48 101.25,771.946 101.25,772.52L101.25,775.64L94.49,775.64C93.916,775.64 93.45,776.106 93.45,776.68C93.45,777.254 93.916,777.72 94.49,777.72L95.53,777.72L95.53,803.72C95.53,804.294 95.996,804.76 96.57,804.76L115.29,804.76C115.865,804.76 116.33,804.294 116.33,803.72L116.33,777.72L117.37,777.72C117.945,777.72 118.41,777.254 118.41,776.68C118.41,776.106 117.945,775.64 117.37,775.64L110.61,775.64L110.61,772.52C110.61,771.946 110.145,771.48 109.57,771.48" style="fill:rgb(74,224,199);fill-rule:nonzero;"/>
            </g>
            <g transform="matrix(1,0,0,1,102.81,470.6)">
                <path d="M0,19.76C0.575,19.76 1.04,19.295 1.04,18.72L1.04,1.04C1.04,0.466 0.575,0 0,0C-0.574,0 -1.04,0.466 -1.04,1.04L-1.04,18.72C-1.04,19.295 -0.574,19.76 0,19.76" style="fill:rgb(74,224,199);fill-rule:nonzero;"/>
            </g>
            <g transform="matrix(1,0,0,1,109.05,470.6)">
                <path d="M0,19.76C0.575,19.76 1.04,19.295 1.04,18.72L1.04,1.04C1.04,0.466 0.575,0 0,0C-0.574,0 -1.04,0.466 -1.04,1.04L-1.04,18.72C-1.04,19.295 -0.574,19.76 0,19.76" style="fill:rgb(74,224,199);fill-rule:nonzero;"/>
            </g>
        </g>
    </g>
</svg>
