<?xml version="1.0" encoding="UTF-8" standalone="no"?>
<!DOCTYPE svg PUBLIC "-//W3C//DTD SVG 1.1//EN" "http://www.w3.org/Graphics/SVG/1.1/DTD/svg11.dtd">
<svg width="100%" height="100%" viewBox="0 0 60 65" version="1.1" xmlns="http://www.w3.org/2000/svg" xmlns:xlink="http://www.w3.org/1999/xlink" xml:space="preserve" xmlns:serif="http://www.serif.com/" style="fill-rule:evenodd;clip-rule:evenodd;stroke-linejoin:round;stroke-miterlimit:2;">
    <g transform="matrix(1,0,0,1,-1055,-1481)">
        <g>
            <g transform="matrix(1,0,0,1,1059,1522.84)">
                <path d="M0,-19.842L10,-19.842C10.531,-19.842 11.039,-20.053 11.414,-20.428L26,-35.014L26,15.33L11.414,0.744C11.039,0.369 10.531,0.158 10,0.158L0,0.158L0,-19.842ZM-2,4.158L9.172,4.158L26.586,21.572C26.969,21.955 27.48,22.158 28,22.158C28.258,22.158 28.518,22.108 28.766,22.006C29.514,21.696 30,20.967 30,20.158L30,-39.842C30,-40.651 29.514,-41.38 28.766,-41.69C28.016,-42 27.158,-41.829 26.586,-41.256L9.172,-23.842L-2,-23.842C-3.104,-23.842 -4,-22.946 -4,-21.842L-4,2.158C-4,3.262 -3.104,4.158 -2,4.158" style="fill:rgb(74,224,199);fill-rule:nonzero;"/>
            </g>
            <g transform="matrix(1,0,0,1,1093.59,1502.39)">
                <path d="M0,21.023C0.391,21.414 0.902,21.609 1.414,21.609C1.926,21.609 2.438,21.414 2.828,21.023L10.414,13.437L18,21.023C18.391,21.414 18.902,21.609 19.414,21.609C19.926,21.609 20.437,21.414 20.828,21.023C21.609,20.242 21.609,18.976 20.828,18.195L13.242,10.609L20.828,3.023C21.609,2.242 21.609,0.976 20.828,0.195C20.047,-0.586 18.781,-0.586 18,0.195L10.414,7.781L2.828,0.195C2.047,-0.586 0.781,-0.586 0,0.195C-0.781,0.976 -0.781,2.242 0,3.023L7.586,10.609L0,18.195C-0.781,18.976 -0.781,20.242 0,21.023" style="fill:rgb(74,224,199);fill-rule:nonzero;"/>
            </g>
        </g>
    </g>
</svg>
