<?xml version="1.0" encoding="UTF-8" standalone="no"?>
<!DOCTYPE svg PUBLIC "-//W3C//DTD SVG 1.1//EN" "http://www.w3.org/Graphics/SVG/1.1/DTD/svg11.dtd">
<svg width="100%" height="100%" viewBox="0 0 84 84" version="1.1" xmlns="http://www.w3.org/2000/svg" xmlns:xlink="http://www.w3.org/1999/xlink" xml:space="preserve" xmlns:serif="http://www.serif.com/" style="fill-rule:evenodd;clip-rule:evenodd;stroke-linejoin:round;stroke-miterlimit:2;">
    <g transform="matrix(1,0,0,1,-13664.1,-9273.11)">
        <g transform="matrix(4.16667,0,0,4.16667,0,0)">
            <g transform="matrix(1,0,0,1,3279.78,2225.81)">
                <path d="M0,19.348C0.261,19.609 0.602,19.739 0.943,19.739C1.284,19.739 1.625,19.609 1.886,19.348L9.609,11.624L17.334,19.348C17.594,19.609 17.936,19.739 18.276,19.739C18.617,19.739 18.959,19.609 19.219,19.348C19.74,18.827 19.74,17.984 19.219,17.463L11.495,9.739L19.219,2.015C19.74,1.494 19.74,0.65 19.219,0.129C18.698,-0.391 17.854,-0.391 17.334,0.129L9.609,7.854L1.886,0.129C1.365,-0.391 0.521,-0.391 0,0.129C-0.521,0.65 -0.521,1.494 0,2.015L7.725,9.739L0,17.463C-0.521,17.984 -0.521,18.827 0,19.348" style="fill:white;fill-rule:nonzero;"/>
            </g>
        </g>
    </g>
</svg>
