<?xml version="1.0" encoding="UTF-8" standalone="no"?>
<!DOCTYPE svg PUBLIC "-//W3C//DTD SVG 1.1//EN" "http://www.w3.org/Graphics/SVG/1.1/DTD/svg11.dtd">
<svg width="100%" height="100%" viewBox="0 0 56 65" version="1.1" xmlns="http://www.w3.org/2000/svg" xmlns:xlink="http://www.w3.org/1999/xlink" xml:space="preserve" xmlns:serif="http://www.serif.com/" style="fill-rule:evenodd;clip-rule:evenodd;stroke-linejoin:round;stroke-miterlimit:2;">
    <g transform="matrix(1,0,0,1,-481,-2057)">
        <g>
            <g transform="matrix(1,0,0,1,527.681,2061)">
                <path d="M0,56L-37.362,56L-41.648,46L4.285,46L0,56ZM7.318,42L-18.682,42L-18.682,-2C-18.682,-3.104 -19.576,-4 -20.682,-4C-21.785,-4 -22.682,-3.104 -22.682,-2L-22.682,42L-44.682,42C-45.354,42 -45.98,42.338 -46.352,42.898C-46.721,43.461 -46.784,44.17 -46.52,44.787L-40.52,58.787C-40.204,59.523 -39.481,60 -38.682,60L1.318,60C2.119,60 2.842,59.523 3.157,58.787L9.157,44.787C9.422,44.17 9.358,43.461 8.988,42.898C8.619,42.338 7.991,42 7.318,42" style="fill:rgb(74,224,199);fill-rule:nonzero;"/>
            </g>
            <g transform="matrix(1,0,0,1,498.999,2080.83)">
                <path d="M0,16.168L-6.467,16.168L0,5.389L0,16.168ZM0.285,-2.861L-11.715,17.139C-12.086,17.757 -12.095,18.526 -11.74,19.153C-11.385,19.78 -10.721,20.168 -10,20.168L2,20.168C3.105,20.168 4,19.272 4,18.168L4,-1.832C4,-2.73 3.4,-3.519 2.534,-3.76C1.669,-4 0.748,-3.632 0.285,-2.861" style="fill:rgb(74,224,199);fill-rule:nonzero;"/>
            </g>
            <g transform="matrix(1,0,0,1,515,2096.78)">
                <path d="M0,-35.556C3.881,-34.817 12,-31.616 12,-17.778C12,-4.041 3.887,-0.787 0,-0.016L0,-35.556ZM-4,-37.778L-4,2.222C-4,3.327 -3.104,4.222 -2,4.222C-1.819,4.222 16,3.97 16,-17.778C16,-39.526 -1.819,-39.778 -2,-39.778C-3.104,-39.778 -4,-38.882 -4,-37.778" style="fill:rgb(74,224,199);fill-rule:nonzero;"/>
            </g>
        </g>
    </g>
</svg>
