<?xml version="1.0" encoding="UTF-8" standalone="no"?>
<!DOCTYPE svg PUBLIC "-//W3C//DTD SVG 1.1//EN" "http://www.w3.org/Graphics/SVG/1.1/DTD/svg11.dtd">
<svg width="100%" height="100%" viewBox="0 0 78 78" version="1.1" xmlns="http://www.w3.org/2000/svg" xmlns:xlink="http://www.w3.org/1999/xlink" xml:space="preserve" xmlns:serif="http://www.serif.com/" style="fill-rule:evenodd;clip-rule:evenodd;stroke-linejoin:round;stroke-miterlimit:2;">
    <g transform="matrix(1,0,0,1,-2312.08,-9770.04)">
        <g transform="matrix(4.16667,0,0,4.16667,0,0)">
            <g transform="matrix(1,0,0,1,572.678,2354.79)">
                <path d="M0,-1.452L-7.802,-1.452L-7.802,-9.254C-7.802,-9.654 -8.126,-9.979 -8.527,-9.979C-8.928,-9.979 -9.252,-9.654 -9.252,-9.254L-9.252,-1.452L-17.054,-1.452C-17.455,-1.452 -17.78,-1.127 -17.78,-0.726C-17.78,-0.326 -17.455,-0.001 -17.054,-0.001L-9.252,-0.001L-9.252,7.801C-9.252,8.201 -8.928,8.527 -8.527,8.527C-8.126,8.527 -7.802,8.201 -7.802,7.801L-7.802,-0.001L0,-0.001C0.401,-0.001 0.726,-0.326 0.726,-0.726C0.726,-1.127 0.401,-1.452 0,-1.452" style="fill:white;fill-rule:nonzero;"/>
            </g>
        </g>
    </g>
</svg>
