<?xml version="1.0" encoding="UTF-8" standalone="no"?>
<!DOCTYPE svg PUBLIC "-//W3C//DTD SVG 1.1//EN" "http://www.w3.org/Graphics/SVG/1.1/DTD/svg11.dtd">
<svg width="100%" height="100%" viewBox="0 0 218 225" version="1.1" xmlns="http://www.w3.org/2000/svg" xmlns:xlink="http://www.w3.org/1999/xlink" xml:space="preserve" xmlns:serif="http://www.serif.com/" style="fill-rule:evenodd;clip-rule:evenodd;stroke-linejoin:round;stroke-miterlimit:2;">
    <g transform="matrix(1,0,0,1,-1052.37,-2749.75)">
        <g transform="matrix(4.16667,0,0,4.16667,0,0)">
            <g transform="matrix(1,0,0,1,0,581.786)">
                <path d="M297.272,121.63L260.358,121.63L260.358,108.884L297.272,108.884L297.272,121.63ZM297.272,104.884L260.358,104.884L260.358,90.89L297.272,90.89L297.272,104.884ZM260.358,82.155L297.272,82.155L297.272,86.889L260.358,86.889L260.358,82.155ZM293.739,128.059L291.048,128.059L291.048,126.065L293.739,126.065L293.739,128.059ZM267.041,128.059L264.35,128.059L264.35,126.065L267.041,126.065L267.041,128.059ZM302.506,88.527L301.272,88.527L301.272,80.423C301.272,79.171 300.257,78.155 299.004,78.155L258.626,78.155C257.374,78.155 256.358,79.171 256.358,80.423L256.358,88.527L254.835,88.527C253.583,88.527 252.568,89.543 252.568,90.795L252.568,98.375C252.568,99.628 253.583,100.643 254.835,100.643L256.358,100.643L256.358,123.362C256.358,124.614 257.374,125.63 258.626,125.63L260.35,125.63L260.35,129.791C260.35,131.043 261.365,132.059 262.617,132.059L268.773,132.059C270.025,132.059 271.041,131.043 271.041,129.791L271.041,125.63L287.048,125.63L287.048,129.791C287.048,131.043 288.063,132.059 289.315,132.059L295.471,132.059C296.724,132.059 297.739,131.043 297.739,129.791L297.739,125.63L299.004,125.63C300.257,125.63 301.272,124.614 301.272,123.362L301.272,100.643L302.506,100.643C303.758,100.643 304.773,99.628 304.773,98.375L304.773,90.795C304.773,89.543 303.758,88.527 302.506,88.527" style="fill:rgb(69,228,210);fill-rule:nonzero;"/>
            </g>
            <g transform="matrix(1,0,0,1,269.049,698.28)">
                <path d="M0,-1.757C0.484,-1.757 0.879,-1.362 0.879,-0.878C0.879,-0.394 0.484,0 0,0C-0.484,0 -0.878,-0.394 -0.878,-0.878C-0.878,-1.362 -0.484,-1.757 0,-1.757M0,2.243C1.722,2.243 3.122,0.843 3.122,-0.878C3.122,-2.6 1.722,-4 0,-4C-1.721,-4 -3.121,-2.6 -3.121,-0.878C-3.121,0.843 -1.721,2.243 0,2.243" style="fill:rgb(69,228,210);fill-rule:nonzero;"/>
            </g>
            <g transform="matrix(1,0,0,1,288.581,698.28)">
                <path d="M0,-1.757C0.484,-1.757 0.879,-1.362 0.879,-0.878C0.879,-0.394 0.484,0 0,0C-0.484,0 -0.878,-0.394 -0.878,-0.878C-0.878,-1.362 -0.484,-1.757 0,-1.757M0,2.243C1.722,2.243 3.122,0.843 3.122,-0.878C3.122,-2.6 1.722,-4 0,-4C-1.721,-4 -3.121,-2.6 -3.121,-0.878C-3.121,0.843 -1.721,2.243 0,2.243" style="fill:rgb(69,228,210);fill-rule:nonzero;"/>
            </g>
        </g>
    </g>
</svg>
