<?xml version="1.0" encoding="UTF-8" standalone="no"?>
<!DOCTYPE svg PUBLIC "-//W3C//DTD SVG 1.1//EN" "http://www.w3.org/Graphics/SVG/1.1/DTD/svg11.dtd">
<svg width="100%" height="100%" viewBox="0 0 94 94" version="1.1" xmlns="http://www.w3.org/2000/svg" xmlns:xlink="http://www.w3.org/1999/xlink" xml:space="preserve" xmlns:serif="http://www.serif.com/" style="fill-rule:evenodd;clip-rule:evenodd;stroke-linejoin:round;stroke-miterlimit:2;">
    <g transform="matrix(1,0,0,1,-1365.48,-9763.93)">
        <g transform="matrix(4.16667,0,0,4.16667,0,0)">
            <g transform="matrix(1,0,0,1,347.315,2345.03)">
                <path d="M0,19.02L-5.31,13.71L-4.2,12.6L1.11,17.911L0,19.02ZM-18.2,5.661C-18.2,2.379 -15.531,-0.29 -12.25,-0.29C-8.969,-0.29 -6.3,2.379 -6.3,5.661C-6.3,8.942 -8.969,11.611 -12.25,11.611C-15.531,11.611 -18.2,8.942 -18.2,5.661M-3.705,11.116C-3.979,10.842 -4.421,10.842 -4.695,11.116L-5.25,11.67L-6.583,10.336C-5.533,9.065 -4.9,7.435 -4.9,5.661C-4.9,1.608 -8.197,-1.69 -12.25,-1.69C-16.303,-1.69 -19.6,1.608 -19.6,5.661C-19.6,9.713 -16.303,13.01 -12.25,13.01C-10.475,13.01 -8.845,12.377 -7.574,11.327L-6.24,12.661L-6.795,13.215C-7.068,13.489 -7.068,13.932 -6.795,14.206L-0.495,20.505C-0.358,20.642 -0.179,20.71 0,20.71C0.179,20.71 0.358,20.642 0.495,20.505L2.595,18.406C2.868,18.132 2.868,17.689 2.595,17.416L-3.705,11.116Z" style="fill:white;fill-rule:nonzero;"/>
            </g>
        </g>
    </g>
</svg>
