<?xml version="1.0" encoding="UTF-8" standalone="no"?>
<!DOCTYPE svg PUBLIC "-//W3C//DTD SVG 1.1//EN" "http://www.w3.org/Graphics/SVG/1.1/DTD/svg11.dtd">
<svg width="100%" height="100%" viewBox="0 0 241 116" version="1.1" xmlns="http://www.w3.org/2000/svg" xmlns:xlink="http://www.w3.org/1999/xlink" xml:space="preserve" xmlns:serif="http://www.serif.com/" style="fill-rule:evenodd;clip-rule:evenodd;stroke-linejoin:round;stroke-miterlimit:2;">
    <g transform="matrix(1,0,0,1,-5075.07,-645.427)">
        <g transform="matrix(8.33333,0,0,8.33333,0,0)">
            <g transform="matrix(1,0,0,1,636.925,91.2561)">
                <path d="M0,-1.801L-27.015,-1.801C-27.513,-1.801 -27.916,-1.398 -27.916,-0.9C-27.916,-0.403 -27.513,0 -27.015,0L0,0C0.497,0 0.9,-0.403 0.9,-0.9C0.9,-1.398 0.497,-1.801 0,-1.801" style="fill:rgb(72,127,137);fill-rule:nonzero;"/>
            </g>
            <g transform="matrix(1,0,0,1,636.925,85.2541)">
                <path d="M0,-1.801L-27.015,-1.801C-27.513,-1.801 -27.916,-1.398 -27.916,-0.9C-27.916,-0.403 -27.513,0 -27.015,0L0,0C0.497,0 0.9,-0.403 0.9,-0.9C0.9,-1.398 0.497,-1.801 0,-1.801" style="fill:rgb(72,127,137);fill-rule:nonzero;"/>
            </g>
            <g transform="matrix(1,0,0,1,636.925,79.2522)">
                <path d="M0,-1.801L-27.015,-1.801C-27.513,-1.801 -27.916,-1.398 -27.916,-0.901C-27.916,-0.403 -27.513,0 -27.015,0L0,0C0.497,0 0.9,-0.403 0.9,-0.901C0.9,-1.398 0.497,-1.801 0,-1.801" style="fill:rgb(72,127,137);fill-rule:nonzero;"/>
            </g>
        </g>
    </g>
</svg>
