<?xml version="1.0" encoding="UTF-8" standalone="no"?>
<!DOCTYPE svg PUBLIC "-//W3C//DTD SVG 1.1//EN" "http://www.w3.org/Graphics/SVG/1.1/DTD/svg11.dtd">
<svg width="100%" height="100%" viewBox="0 0 89 89" version="1.1" xmlns="http://www.w3.org/2000/svg" xmlns:xlink="http://www.w3.org/1999/xlink" xml:space="preserve" xmlns:serif="http://www.serif.com/" style="fill-rule:evenodd;clip-rule:evenodd;stroke-linejoin:round;stroke-miterlimit:2;">
    <g transform="matrix(1,0,0,1,-238.107,-1776.32)">
        <g transform="matrix(2.66667,0,0,2.66667,0,0)">
            <g transform="matrix(1,0,0,1,121.53,699.4)">
                <path d="M0,-33.28C-0.575,-33.28 -1.04,-32.814 -1.04,-32.24L-1.04,-24.67L-2.08,-24.323L-2.08,-32.24C-2.08,-32.814 -2.546,-33.28 -3.12,-33.28C-3.694,-33.28 -4.16,-32.814 -4.16,-32.24L-4.16,-24.323L-5.2,-24.67L-5.2,-32.24C-5.2,-32.814 -5.666,-33.28 -6.24,-33.28C-6.814,-33.28 -7.28,-32.814 -7.28,-32.24L-7.28,-23.92C-7.28,-23.472 -6.994,-23.075 -6.569,-22.933L-4.16,-22.131L-4.16,-1.04C-4.16,-0.466 -3.694,0 -3.12,0C-2.546,0 -2.08,-0.466 -2.08,-1.04L-2.08,-22.131L0.329,-22.933C0.753,-23.075 1.04,-23.472 1.04,-23.92L1.04,-32.24C1.04,-32.814 0.574,-33.28 0,-33.28" style="fill:rgb(74,224,199);fill-rule:nonzero;"/>
            </g>
            <g transform="matrix(1,0,0,1,91.3701,684.32)">
                <path d="M0,0C0,-6.021 4.898,-10.92 10.92,-10.92C16.941,-10.92 21.84,-6.021 21.84,0C21.84,6.021 16.941,10.92 10.92,10.92C4.898,10.92 0,6.021 0,0M23.92,0C23.92,-7.169 18.088,-13 10.92,-13C3.751,-13 -2.08,-7.169 -2.08,0C-2.08,7.168 3.751,13 10.92,13C18.088,13 23.92,7.168 23.92,0" style="fill:rgb(74,224,199);fill-rule:nonzero;"/>
            </g>
            <g transform="matrix(1,0,0,1,95.5298,684.32)">
                <path d="M0,0C0,-3.728 3.033,-6.761 6.76,-6.761C10.488,-6.761 13.52,-3.728 13.52,0C13.52,3.727 10.488,6.76 6.76,6.76C3.033,6.76 0,3.727 0,0M15.6,0C15.6,-4.875 11.635,-8.84 6.76,-8.84C1.886,-8.84 -2.08,-4.875 -2.08,0C-2.08,4.874 1.886,8.84 6.76,8.84C11.635,8.84 15.6,4.874 15.6,0" style="fill:rgb(74,224,199);fill-rule:nonzero;"/>
            </g>
        </g>
    </g>
</svg>
