<?xml version="1.0" encoding="UTF-8" standalone="no"?>
<!DOCTYPE svg PUBLIC "-//W3C//DTD SVG 1.1//EN" "http://www.w3.org/Graphics/SVG/1.1/DTD/svg11.dtd">
<svg width="100%" height="100%" viewBox="0 0 88 77" version="1.1" xmlns="http://www.w3.org/2000/svg" xmlns:xlink="http://www.w3.org/1999/xlink" xml:space="preserve" xmlns:serif="http://www.serif.com/" style="fill-rule:evenodd;clip-rule:evenodd;stroke-linejoin:round;stroke-miterlimit:2;">
    <g transform="matrix(1,0,0,1,-238.704,-2494.06)">
        <g transform="matrix(2.66667,0,0,2.66667,0,0)">
            <g transform="matrix(1,0,0,1,120.294,939.217)">
                <path d="M0,20.806L-13.338,22.584L-13.338,0.031L0,-1.748L0,20.806ZM-28.728,-1.748L-15.39,0.031L-15.39,22.584L-28.728,20.806L-28.728,-1.748ZM0.89,-3.936L-14.364,-1.903L-29.619,-3.936C-29.914,-3.977 -30.208,-3.886 -30.43,-3.692C-30.652,-3.497 -30.78,-3.215 -30.78,-2.92L-30.78,21.704C-30.78,22.218 -30.399,22.654 -29.89,22.721L-14.5,24.774C-14.455,24.78 -14.409,24.783 -14.364,24.783C-14.319,24.783 -14.273,24.78 -14.229,24.774L1.162,22.721C1.671,22.654 2.052,22.218 2.052,21.704L2.052,-2.92C2.052,-3.215 1.924,-3.497 1.702,-3.692C1.479,-3.886 1.186,-3.974 0.89,-3.936" style="fill:rgb(74,224,199);fill-rule:nonzero;"/>
            </g>
            <g transform="matrix(1,0,0,1,94.5166,941.372)">
                <path d="M0,1.073L8.208,2.099C8.251,2.105 8.294,2.107 8.337,2.107C8.846,2.107 9.289,1.727 9.353,1.209C9.423,0.646 9.024,0.134 8.462,0.063L0.254,-0.962C-0.306,-1.034 -0.821,-0.634 -0.891,-0.072C-0.961,0.49 -0.562,1.004 0,1.073" style="fill:rgb(74,224,199);fill-rule:nonzero;"/>
            </g>
            <g transform="matrix(1,0,0,1,102.979,947.509)">
                <path d="M0,-0.944L-8.208,-1.969C-8.769,-2.044 -9.283,-1.641 -9.353,-1.079C-9.423,-0.517 -9.024,-0.004 -8.462,0.067L-0.254,1.092C-0.211,1.098 -0.168,1.1 -0.125,1.1C0.384,1.1 0.826,0.721 0.891,0.202C0.961,-0.36 0.562,-0.874 0,-0.944" style="fill:rgb(74,224,199);fill-rule:nonzero;"/>
            </g>
            <g transform="matrix(1,0,0,1,102.979,952.641)">
                <path d="M0,-0.946L-8.208,-1.971C-8.769,-2.045 -9.283,-1.643 -9.353,-1.081C-9.423,-0.518 -9.024,-0.006 -8.462,0.065L-0.254,1.09C-0.211,1.096 -0.168,1.099 -0.125,1.099C0.384,1.099 0.826,0.719 0.891,0.2C0.961,-0.362 0.562,-0.876 0,-0.946" style="fill:rgb(74,224,199);fill-rule:nonzero;"/>
            </g>
            <g transform="matrix(1,0,0,1,102.979,957.772)">
                <path d="M0,-0.946L-8.208,-1.972C-8.769,-2.044 -9.283,-1.644 -9.353,-1.082C-9.423,-0.519 -9.024,-0.007 -8.462,0.064L-0.254,1.089C-0.211,1.095 -0.168,1.098 -0.125,1.098C0.384,1.098 0.826,0.718 0.891,0.199C0.961,-0.363 0.562,-0.877 0,-0.946" style="fill:rgb(74,224,199);fill-rule:nonzero;"/>
            </g>
            <g transform="matrix(1,0,0,1,109.006,940.337)">
                <path d="M0,3.142C0.042,3.142 0.085,3.14 0.129,3.134L8.336,2.108C8.899,2.038 9.297,1.525 9.228,0.963C9.157,0.401 8.638,0 8.082,0.073L-0.126,1.098C-0.688,1.168 -1.087,1.681 -1.017,2.244C-0.952,2.762 -0.51,3.142 0,3.142" style="fill:rgb(74,224,199);fill-rule:nonzero;"/>
            </g>
            <g transform="matrix(1,0,0,1,109.006,945.465)">
                <path d="M0,3.144C0.042,3.144 0.085,3.142 0.129,3.136L8.336,2.111C8.899,2.04 9.297,1.527 9.228,0.965C9.157,0.403 8.638,0 8.082,0.075L-0.126,1.1C-0.688,1.17 -1.087,1.684 -1.017,2.246C-0.952,2.765 -0.51,3.144 0,3.144" style="fill:rgb(74,224,199);fill-rule:nonzero;"/>
            </g>
            <g transform="matrix(1,0,0,1,109.006,950.596)">
                <path d="M0,3.144C0.042,3.144 0.085,3.141 0.129,3.135L8.336,2.11C8.899,2.04 9.297,1.527 9.228,0.964C9.157,0.402 8.638,0 8.082,0.074L-0.126,1.099C-0.688,1.169 -1.087,1.683 -1.017,2.245C-0.952,2.764 -0.51,3.144 0,3.144" style="fill:rgb(74,224,199);fill-rule:nonzero;"/>
            </g>
            <g transform="matrix(1,0,0,1,117.123,958.718)">
                <path d="M0,-2.826L-8.229,-1.989C-8.793,-1.931 -9.203,-1.428 -9.146,-0.864C-9.093,-0.344 -8.66,0.046 -8.15,0.058C-8.108,0.059 -8.065,0.057 -8.021,0.053L0.208,-0.785C0.771,-0.842 1.182,-1.346 1.125,-1.909C1.067,-2.473 0.558,-2.885 0,-2.826" style="fill:rgb(74,224,199);fill-rule:nonzero;"/>
            </g>
        </g>
    </g>
</svg>
