<?xml version="1.0" encoding="UTF-8" standalone="no"?>
<!DOCTYPE svg PUBLIC "-//W3C//DTD SVG 1.1//EN" "http://www.w3.org/Graphics/SVG/1.1/DTD/svg11.dtd">
<svg width="100%" height="100%" viewBox="0 0 382 374" version="1.1" xmlns="http://www.w3.org/2000/svg" xmlns:xlink="http://www.w3.org/1999/xlink" xml:space="preserve" xmlns:serif="http://www.serif.com/" style="fill-rule:evenodd;clip-rule:evenodd;stroke-linejoin:round;stroke-miterlimit:2;">
    <g transform="matrix(1,0,0,1,-8361.66,-4951.07)">
        <g transform="matrix(8.33333,0,0,8.33333,0,0)">
            <g transform="matrix(1,0,0,1,1016.13,604.672)">
                <path d="M0,23.713L7.896,15.817C8.498,15.215 8.498,14.24 7.896,13.639C7.596,13.338 7.202,13.188 6.808,13.188C6.414,13.188 6.02,13.338 5.719,13.639L-2.088,21.445C-6.495,15.673 -6.222,8.067 -1.148,2.994C5.291,-3.445 23.707,-6.412 29.732,-7.229C28.933,-1.194 26.013,17.271 19.547,23.679C14.12,29.056 5.85,29.02 0,23.713M-12.275,33.846C-11.976,34.147 -11.581,34.297 -11.187,34.297C-10.793,34.297 -10.398,34.147 -10.098,33.846L-2.162,25.91C4.928,32.432 15.054,32.467 21.714,25.867C30.23,17.428 32.923,-7.776 33.033,-8.845C33.08,-9.306 32.918,-9.765 32.59,-10.092C32.59,-10.093 32.589,-10.093 32.588,-10.094C32.259,-10.422 31.8,-10.584 31.338,-10.534C30.272,-10.421 5.146,-7.657 -3.326,0.817C-9.644,7.134 -9.912,16.619 -4.265,23.657L-12.275,31.668C-12.877,32.27 -12.877,33.244 -12.275,33.846" style="fill:white;fill-rule:nonzero;"/>
            </g>
        </g>
    </g>
</svg>
