<?xml version="1.0" encoding="UTF-8" standalone="no"?>
<!DOCTYPE svg PUBLIC "-//W3C//DTD SVG 1.1//EN" "http://www.w3.org/Graphics/SVG/1.1/DTD/svg11.dtd">
<svg width="100%" height="100%" viewBox="0 0 88 88" version="1.1" xmlns="http://www.w3.org/2000/svg" xmlns:xlink="http://www.w3.org/1999/xlink" xml:space="preserve" xmlns:serif="http://www.serif.com/" style="fill-rule:evenodd;clip-rule:evenodd;stroke-linejoin:round;stroke-miterlimit:2;">
    <g transform="matrix(1,0,0,1,-238.701,-2308.83)">
        <g transform="matrix(2.66667,0,0,2.66667,0,0)">
            <g transform="matrix(1,0,0,1,119.05,876.372)">
                <path d="M0,11.71L-9.042,6.284C-8.918,5.096 -9.309,3.862 -10.219,2.952C-10.995,2.178 -12.024,1.751 -13.121,1.751C-13.266,1.751 -13.409,1.759 -13.551,1.773L-18.975,-7.266C-17.156,-8.078 -15.172,-8.509 -13.121,-8.509C-9.284,-8.509 -5.677,-7.016 -2.964,-4.301C-0.25,-1.589 1.245,2.019 1.245,5.855C1.245,7.906 0.812,9.891 0,11.71M-2.964,16.011C-3.727,16.775 -4.565,17.439 -5.456,18.003L-10.741,9.194C-10.558,9.063 -10.381,8.92 -10.219,8.757C-10.055,8.593 -9.912,8.417 -9.782,8.233L-0.972,13.52C-1.536,14.41 -2.199,15.247 -2.964,16.011M-23.277,16.011C-25.991,13.298 -27.484,9.691 -27.484,5.855C-27.484,3.803 -27.054,1.819 -26.241,0L-17.198,5.425C-17.323,6.614 -16.932,7.848 -16.022,8.758C-15.247,9.532 -14.216,9.959 -13.121,9.959C-12.975,9.959 -12.831,9.951 -12.688,9.936L-7.265,18.976C-9.084,19.788 -11.068,20.219 -13.121,20.219C-16.957,20.219 -20.564,18.725 -23.277,16.011M-11.67,7.306C-12.058,7.693 -12.572,7.906 -13.121,7.906C-13.668,7.906 -14.184,7.693 -14.571,7.306C-15.371,6.506 -15.371,5.203 -14.571,4.404C-14.184,4.017 -13.668,3.803 -13.121,3.803C-12.572,3.803 -12.058,4.017 -11.67,4.403C-10.869,5.203 -10.869,6.506 -11.67,7.306M-23.277,-4.302C-22.513,-5.065 -21.676,-5.729 -20.786,-6.294L-15.499,2.516C-15.684,2.647 -15.859,2.79 -16.022,2.952C-16.186,3.116 -16.329,3.293 -16.459,3.477L-25.269,-1.811C-24.704,-2.701 -24.041,-3.537 -23.277,-4.302M-13.121,-10.561C-17.505,-10.561 -21.628,-8.853 -24.728,-5.753C-27.829,-2.651 -29.537,1.47 -29.537,5.855C-29.537,10.239 -27.829,14.361 -24.728,17.462C-21.628,20.563 -17.505,22.271 -13.121,22.271C-8.736,22.271 -4.613,20.563 -1.513,17.462C1.588,14.361 3.296,10.239 3.296,5.855C3.296,1.47 1.588,-2.651 -1.513,-5.752C-4.613,-8.853 -8.736,-10.561 -13.121,-10.561" style="fill:rgb(74,224,199);fill-rule:nonzero;"/>
            </g>
        </g>
    </g>
</svg>
