<?xml version="1.0" encoding="UTF-8" standalone="no"?>
<!DOCTYPE svg PUBLIC "-//W3C//DTD SVG 1.1//EN" "http://www.w3.org/Graphics/SVG/1.1/DTD/svg11.dtd">
<svg width="100%" height="100%" viewBox="0 0 64 91" version="1.1" xmlns="http://www.w3.org/2000/svg" xmlns:xlink="http://www.w3.org/1999/xlink" xml:space="preserve" xmlns:serif="http://www.serif.com/" style="fill-rule:evenodd;clip-rule:evenodd;stroke-linejoin:round;stroke-miterlimit:2;">
    <g transform="matrix(1,0,0,1,-250.586,-1949.33)">
        <g transform="matrix(2.66667,0,0,2.66667,0,0)">
            <g transform="matrix(1,0,0,1,103.85,757.519)">
                <path d="M0,-3.119C0,-3.694 -0.465,-4.159 -1.04,-4.159C-1.614,-4.159 -2.08,-3.694 -2.08,-3.119C-2.08,-0.981 -0.058,1.04 2.08,1.04C4.219,1.04 6.24,-0.981 6.24,-3.119C6.24,-3.694 5.774,-4.159 5.2,-4.159C4.626,-4.159 4.16,-3.694 4.16,-3.119C4.16,-2.128 3.072,-1.039 2.08,-1.039C1.089,-1.039 0,-2.128 0,-3.119" style="fill:rgb(74,224,199);fill-rule:nonzero;"/>
            </g>
            <g transform="matrix(1,0,0,1,101.463,750.889)">
                <path d="M0,-1.382C-0.385,-1.773 -1.082,-1.773 -1.466,-1.382C-1.664,-1.19 -1.773,-0.925 -1.773,-0.649C-1.773,-0.373 -1.664,-0.108 -1.466,0.085C-1.274,0.282 -1.009,0.391 -0.733,0.391C-0.458,0.391 -0.192,0.282 0,0.085C0.198,-0.108 0.307,-0.373 0.307,-0.649C0.307,-0.925 0.198,-1.19 0,-1.382" style="fill:rgb(74,224,199);fill-rule:nonzero;"/>
            </g>
            <g transform="matrix(1,0,0,1,111.13,749.116)">
                <path d="M0,2.164C0.275,2.164 0.541,2.055 0.738,1.857C0.931,1.665 1.04,1.393 1.04,1.124C1.04,0.853 0.931,0.583 0.738,0.391C0.348,0 -0.349,0 -0.733,0.391C-0.931,0.583 -1.04,0.848 -1.04,1.124C-1.04,1.399 -0.931,1.665 -0.733,1.857C-0.541,2.055 -0.276,2.164 0,2.164" style="fill:rgb(74,224,199);fill-rule:nonzero;"/>
            </g>
            <g transform="matrix(1,0,0,1,105.93,733.08)">
                <path d="M0,29.64C-5.608,29.64 -9.856,25.615 -9.88,20.275C-9.908,14.127 -2.485,3.915 0.016,0.652C2.502,3.919 9.88,14.13 9.88,20.281C9.88,25.617 5.632,29.64 0,29.64M0.02,-2.08L0.018,-2.08C-0.295,-2.08 -0.592,-1.938 -0.789,-1.696C-1.247,-1.132 -11.997,12.188 -11.96,20.286C-11.93,26.804 -6.789,31.72 0,31.72C6.818,31.72 11.96,26.802 11.96,20.281C11.96,12.188 1.282,-1.131 0.827,-1.693C0.63,-1.937 0.333,-2.079 0.02,-2.08" style="fill:rgb(74,224,199);fill-rule:nonzero;"/>
            </g>
        </g>
    </g>
</svg>
