<?xml version="1.0" encoding="UTF-8" standalone="no"?>
<!DOCTYPE svg PUBLIC "-//W3C//DTD SVG 1.1//EN" "http://www.w3.org/Graphics/SVG/1.1/DTD/svg11.dtd">
<svg width="100%" height="100%" viewBox="0 0 58 64" version="1.1" xmlns="http://www.w3.org/2000/svg" xmlns:xlink="http://www.w3.org/1999/xlink" xml:space="preserve" xmlns:serif="http://www.serif.com/" style="fill-rule:evenodd;clip-rule:evenodd;stroke-linejoin:round;stroke-miterlimit:2;">
    <g transform="matrix(1,0,0,1,-193,-904)">
        <g transform="matrix(1,0,0,1,246.915,935)">
            <path d="M0,2L-1.915,2C-3.02,2 -3.915,2.896 -3.915,4C-3.915,5.104 -3.02,6 -1.915,6L0,6C-0.415,11.27 -2.463,16.206 -5.901,20.223C-5.954,20.154 -6.003,20.084 -6.065,20.021L-8.894,17.192C-9.675,16.411 -10.941,16.411 -11.723,17.192C-12.504,17.973 -12.504,19.239 -11.723,20.021L-8.895,22.85C-8.832,22.912 -8.762,22.962 -8.693,23.014C-12.709,26.452 -17.646,28.5 -22.915,28.914L-22.915,26C-22.915,24.896 -23.811,24 -24.915,24C-26.02,24 -26.915,24.896 -26.915,26L-26.915,28.914C-32.185,28.5 -37.121,26.452 -41.137,23.014C-41.069,22.961 -40.999,22.912 -40.936,22.85L-38.107,20.021C-37.326,19.239 -37.326,17.974 -38.107,17.192C-38.887,16.411 -40.155,16.411 -40.935,17.192L-43.764,20.021C-43.827,20.084 -43.876,20.154 -43.928,20.223C-47.367,16.206 -49.415,11.27 -49.83,6L-47.915,6C-46.811,6 -45.915,5.104 -45.915,4C-45.915,2.896 -46.811,2 -47.915,2L-49.83,2C-49.415,-3.27 -47.367,-8.206 -43.929,-12.222C-43.876,-12.153 -43.827,-12.083 -43.764,-12.021L-40.936,-9.192C-40.545,-8.802 -40.033,-8.606 -39.521,-8.606C-39.01,-8.606 -38.498,-8.802 -38.107,-9.192C-37.326,-9.974 -37.326,-11.24 -38.107,-12.021L-40.936,-14.849C-40.999,-14.911 -41.069,-14.961 -41.138,-15.014C-37.122,-18.451 -32.185,-20.5 -26.915,-20.914L-26.915,-19C-26.915,-17.896 -26.02,-17 -24.915,-17C-23.811,-17 -22.915,-17.896 -22.915,-19L-22.915,-20.914C-17.646,-20.5 -12.709,-18.452 -8.692,-15.014C-8.761,-14.961 -8.831,-14.911 -8.894,-14.849L-11.722,-12.021C-12.503,-11.239 -12.503,-9.974 -11.722,-9.192C-11.332,-8.802 -10.82,-8.606 -10.308,-8.606C-9.796,-8.606 -9.284,-8.802 -8.894,-9.192L-6.066,-12.021C-6.003,-12.083 -5.954,-12.153 -5.901,-12.223C-2.463,-8.206 -0.415,-3.27 0,2M-53.915,4C-53.915,11.746 -50.898,19.028 -45.421,24.505C-39.944,29.983 -32.662,33 -24.915,33C-17.169,33 -9.886,29.983 -4.409,24.505C1.069,19.028 4.085,11.746 4.085,4C4.085,-3.746 1.069,-11.028 -4.409,-16.505C-9.412,-21.509 -15.922,-24.451 -22.915,-24.924L-22.915,-27L-18.915,-27C-17.811,-27 -16.915,-27.896 -16.915,-29C-16.915,-30.104 -17.811,-31 -18.915,-31L-30.915,-31C-32.02,-31 -32.915,-30.104 -32.915,-29C-32.915,-27.896 -32.02,-27 -30.915,-27L-26.915,-27L-26.915,-24.924C-33.908,-24.451 -40.418,-21.509 -45.42,-16.505C-50.898,-11.028 -53.915,-3.746 -53.915,4" style="fill:rgb(74,224,199);fill-rule:nonzero;"/>
        </g>
        <g transform="matrix(1,0,0,1,223.999,932.443)">
            <path d="M0,3.114L0,-5.443C0,-6.547 -0.896,-7.443 -2,-7.443C-3.104,-7.443 -4,-6.547 -4,-5.443L-4,3.114C-5.19,3.807 -6,5.083 -6,6.557C-6,8.763 -4.206,10.557 -2,10.557C0.206,10.557 2,8.763 2,6.557C2,5.083 1.19,3.807 0,3.114" style="fill:rgb(74,224,199);fill-rule:nonzero;"/>
        </g>
    </g>
</svg>
