<?xml version="1.0" encoding="UTF-8" standalone="no"?>
<!DOCTYPE svg PUBLIC "-//W3C//DTD SVG 1.1//EN" "http://www.w3.org/Graphics/SVG/1.1/DTD/svg11.dtd">
<svg width="100%" height="100%" viewBox="0 0 101 48" version="1.1" xmlns="http://www.w3.org/2000/svg" xmlns:xlink="http://www.w3.org/1999/xlink" xml:space="preserve" xmlns:serif="http://www.serif.com/" style="fill-rule:evenodd;clip-rule:evenodd;stroke-linejoin:round;stroke-miterlimit:2;">
    <g transform="matrix(1,0,0,1,-1671.94,-9785.45)">
        <g transform="matrix(4.16667,0,0,4.16667,0,0)">
            <g transform="matrix(1,0,0,1,424.528,2360.01)">
                <path d="M0,-1.501L-22.513,-1.501C-22.927,-1.501 -23.263,-1.165 -23.263,-0.751C-23.263,-0.336 -22.927,0 -22.513,0L0,0C0.415,0 0.75,-0.336 0.75,-0.751C0.75,-1.165 0.415,-1.501 0,-1.501" style="fill:white;fill-rule:nonzero;"/>
            </g>
            <g transform="matrix(1,0,0,1,424.528,2355.01)">
                <path d="M0,-1.501L-22.513,-1.501C-22.927,-1.501 -23.263,-1.165 -23.263,-0.75C-23.263,-0.336 -22.927,0 -22.513,0L0,0C0.415,0 0.75,-0.336 0.75,-0.75C0.75,-1.165 0.415,-1.501 0,-1.501" style="fill:white;fill-rule:nonzero;"/>
            </g>
            <g transform="matrix(1,0,0,1,424.528,2350.01)">
                <path d="M0,-1.5L-22.513,-1.5C-22.927,-1.5 -23.263,-1.164 -23.263,-0.75C-23.263,-0.336 -22.927,0 -22.513,0L0,0C0.415,0 0.75,-0.336 0.75,-0.75C0.75,-1.164 0.415,-1.5 0,-1.5" style="fill:white;fill-rule:nonzero;"/>
            </g>
        </g>
    </g>
</svg>
