<?xml version="1.0" encoding="UTF-8" standalone="no"?>
<!DOCTYPE svg PUBLIC "-//W3C//DTD SVG 1.1//EN" "http://www.w3.org/Graphics/SVG/1.1/DTD/svg11.dtd">
<svg width="100%" height="100%" viewBox="0 0 89 67" version="1.1" xmlns="http://www.w3.org/2000/svg" xmlns:xlink="http://www.w3.org/1999/xlink" xml:space="preserve" xmlns:serif="http://www.serif.com/" style="fill-rule:evenodd;clip-rule:evenodd;stroke-linejoin:round;stroke-miterlimit:2;">
    <g transform="matrix(1,0,0,1,-238.107,-1062.08)">
        <g transform="matrix(2.66667,0,0,2.66667,0,0)">
            <g transform="matrix(1,0,0,1,0,-444.48)">
                <path d="M120.49,865.64L91.37,865.64L91.37,849L120.49,849L120.49,865.64ZM101.25,844.84L110.61,844.84L110.61,846.92L101.25,846.92L101.25,844.84ZM121.53,846.92L112.69,846.92L112.69,843.8C112.69,843.226 112.225,842.76 111.65,842.76L100.21,842.76C99.636,842.76 99.17,843.226 99.17,843.8L99.17,846.92L90.33,846.92C89.756,846.92 89.29,847.386 89.29,847.96L89.29,866.68C89.29,867.254 89.756,867.72 90.33,867.72L121.53,867.72C122.104,867.72 122.57,867.254 122.57,866.68L122.57,847.96C122.57,847.386 122.104,846.92 121.53,846.92" style="fill:rgb(74,224,199);fill-rule:nonzero;"/>
            </g>
            <g transform="matrix(1,0,0,1,106.97,413.88)">
                <path d="M0,-2.08L0,-6.24C0,-6.814 -0.465,-7.28 -1.04,-7.28C-1.614,-7.28 -2.08,-6.814 -2.08,-6.24L-2.08,-2.08L-6.24,-2.08C-6.814,-2.08 -7.28,-1.614 -7.28,-1.04C-7.28,-0.465 -6.814,0 -6.24,0L-2.08,0L-2.08,4.16C-2.08,4.734 -1.614,5.2 -1.04,5.2C-0.465,5.2 0,4.734 0,4.16L0,0L4.16,0C4.735,0 5.2,-0.465 5.2,-1.04C5.2,-1.614 4.735,-2.08 4.16,-2.08L0,-2.08Z" style="fill:rgb(74,224,199);fill-rule:nonzero;"/>
            </g>
        </g>
    </g>
</svg>
