<?xml version="1.0" encoding="UTF-8" standalone="no"?>
<!DOCTYPE svg PUBLIC "-//W3C//DTD SVG 1.1//EN" "http://www.w3.org/Graphics/SVG/1.1/DTD/svg11.dtd">
<svg width="100%" height="100%" viewBox="0 0 408 256" version="1.1" xmlns="http://www.w3.org/2000/svg" xmlns:xlink="http://www.w3.org/1999/xlink" xml:space="preserve" xmlns:serif="http://www.serif.com/" style="fill-rule:evenodd;clip-rule:evenodd;stroke-linejoin:round;stroke-miterlimit:2;">
    <g transform="matrix(1,0,0,1,-7216.21,-5014.51)">
        <g transform="matrix(8.33333,0,0,8.33333,0,0)">
            <g transform="matrix(1,0,0,1,869.005,604.802)">
                <path d="M0,24.479L0,1.509L21.42,14.804L42.84,1.509L42.84,24.479L0,24.479ZM39.472,0L21.42,11.204L3.369,0L39.472,0ZM44.37,-3.061L-1.53,-3.061C-2.375,-3.061 -3.06,-2.375 -3.06,-1.531L-3.06,26.009C-3.06,26.854 -2.375,27.54 -1.53,27.54L44.37,27.54C45.215,27.54 45.9,26.854 45.9,26.009L45.9,-1.531C45.9,-2.375 45.215,-3.061 44.37,-3.061" style="fill:white;fill-rule:nonzero;"/>
            </g>
        </g>
    </g>
</svg>
