<?xml version="1.0" encoding="UTF-8" standalone="no"?>
<!DOCTYPE svg PUBLIC "-//W3C//DTD SVG 1.1//EN" "http://www.w3.org/Graphics/SVG/1.1/DTD/svg11.dtd">
<svg width="100%" height="100%" viewBox="0 0 89 78" version="1.1" xmlns="http://www.w3.org/2000/svg" xmlns:xlink="http://www.w3.org/1999/xlink" xml:space="preserve" xmlns:serif="http://www.serif.com/" style="fill-rule:evenodd;clip-rule:evenodd;stroke-linejoin:round;stroke-miterlimit:2;">
    <g transform="matrix(1,0,0,1,-238.106,-875.2)">
        <g transform="matrix(2.66667,0,0,2.66667,0,0)">
            <g transform="matrix(1,0,0,1,120.49,349)">
                <path d="M0,-12.48L-5.2,-12.48C-5.774,-12.48 -6.24,-12.014 -6.24,-11.44L-6.24,6.24L-22.88,6.24L-22.88,-11.44C-22.88,-12.014 -23.345,-12.48 -23.92,-12.48L-29.12,-12.48L-29.12,-18.72L-20.28,-18.72L-17.472,-14.976C-17.276,-14.714 -16.967,-14.56 -16.64,-14.56L-12.48,-14.56C-12.152,-14.56 -11.844,-14.714 -11.648,-14.976L-8.84,-18.72L0,-18.72L0,-12.48ZM1.04,-20.8L-9.36,-20.8C-9.687,-20.8 -9.996,-20.646 -10.192,-20.384L-13,-16.64L-16.12,-16.64L-18.928,-20.384C-19.124,-20.646 -19.432,-20.8 -19.76,-20.8L-30.16,-20.8C-30.734,-20.8 -31.2,-20.334 -31.2,-19.76L-31.2,-11.44C-31.2,-10.866 -30.734,-10.4 -30.16,-10.4L-24.96,-10.4L-24.96,7.28C-24.96,7.854 -24.494,8.32 -23.92,8.32L-5.2,8.32C-4.625,8.32 -4.16,7.854 -4.16,7.28L-4.16,-10.4L1.04,-10.4C1.615,-10.4 2.08,-10.866 2.08,-11.44L2.08,-19.76C2.08,-20.334 1.615,-20.8 1.04,-20.8" style="fill:rgb(74,224,199);fill-rule:nonzero;"/>
            </g>
        </g>
    </g>
</svg>
