<?xml version="1.0" encoding="UTF-8" standalone="no"?>
<!DOCTYPE svg PUBLIC "-//W3C//DTD SVG 1.1//EN" "http://www.w3.org/Graphics/SVG/1.1/DTD/svg11.dtd">
<svg width="100%" height="100%" viewBox="0 0 64 64" version="1.1" xmlns="http://www.w3.org/2000/svg" xmlns:xlink="http://www.w3.org/1999/xlink" xml:space="preserve" xmlns:serif="http://www.serif.com/" style="fill-rule:evenodd;clip-rule:evenodd;stroke-linejoin:round;stroke-miterlimit:2;">
    <g transform="matrix(1,0,0,1,-621,-2057)">
        <g>
            <g transform="matrix(1,0,0,1,653,2075)">
                <path d="M0,28C-7.719,28 -14,21.72 -14,14C-14,6.28 -7.719,0 0,0C7.721,0 14,6.28 14,14C14,21.72 7.721,28 0,28M0,-4C-9.925,-4 -18,4.074 -18,14C-18,23.926 -9.925,32 0,32C9.926,32 18,23.926 18,14C18,4.074 9.926,-4 0,-4" style="fill:rgb(74,224,199);fill-rule:nonzero;"/>
            </g>
            <g transform="matrix(1,0,0,1,651,2067)">
                <path d="M0,-8L0,0C0,1.104 0.896,2 2,2C3.105,2 4,1.104 4,0L4,-8C4,-9.104 3.105,-10 2,-10C0.896,-10 0,-9.104 0,-8" style="fill:rgb(74,224,199);fill-rule:nonzero;"/>
            </g>
            <g transform="matrix(1,0,0,1,653,2121)">
                <path d="M0,-12C-1.104,-12 -2,-11.104 -2,-10L-2,-2C-2,-0.896 -1.104,0 0,0C1.105,0 2,-0.896 2,-2L2,-10C2,-11.104 1.105,-12 0,-12" style="fill:rgb(74,224,199);fill-rule:nonzero;"/>
            </g>
            <g transform="matrix(1,0,0,1,683,2091)">
                <path d="M0,-4L-8,-4C-9.104,-4 -10,-3.104 -10,-2C-10,-0.896 -9.104,0 -8,0L0,0C1.105,0 2,-0.896 2,-2C2,-3.104 1.105,-4 0,-4" style="fill:rgb(74,224,199);fill-rule:nonzero;"/>
            </g>
            <g transform="matrix(1,0,0,1,633,2089)">
                <path d="M0,0C0,-1.104 -0.895,-2 -2,-2L-10,-2C-11.104,-2 -12,-1.104 -12,0C-12,1.104 -11.104,2 -10,2L-2,2C-0.895,2 0,1.104 0,0" style="fill:rgb(74,224,199);fill-rule:nonzero;"/>
            </g>
            <g transform="matrix(1,0,0,1,671.585,2074.22)">
                <path d="M0,-6.633L-4,-2.633C-4.781,-1.852 -4.781,-0.586 -4,0.195C-3.609,0.586 -3.098,0.781 -2.586,0.781C-2.074,0.781 -1.562,0.586 -1.172,0.195L2.828,-3.805C3.609,-4.586 3.609,-5.852 2.828,-6.633C2.049,-7.414 0.781,-7.414 0,-6.633" style="fill:rgb(74,224,199);fill-rule:nonzero;"/>
            </g>
            <g transform="matrix(1,0,0,1,635.585,2110.22)">
                <path d="M0,-6.633L-4,-2.633C-4.781,-1.852 -4.781,-0.586 -4,0.195C-3.609,0.586 -3.098,0.781 -2.586,0.781C-2.074,0.781 -1.562,0.586 -1.172,0.195L2.828,-3.805C3.609,-4.586 3.609,-5.852 2.828,-6.633C2.049,-7.414 0.781,-7.414 0,-6.633" style="fill:rgb(74,224,199);fill-rule:nonzero;"/>
            </g>
            <g transform="matrix(1,0,0,1,670.414,2110.22)">
                <path d="M0,-6.633C-0.779,-7.414 -2.047,-7.414 -2.828,-6.633C-3.609,-5.852 -3.609,-4.586 -2.828,-3.805L1.172,0.195C1.562,0.586 2.074,0.781 2.586,0.781C3.098,0.781 3.61,0.586 4,0.195C4.781,-0.586 4.781,-1.852 4,-2.633L0,-6.633Z" style="fill:rgb(74,224,199);fill-rule:nonzero;"/>
            </g>
            <g transform="matrix(1,0,0,1,631.585,2074.22)">
                <path d="M0,-6.633C-0.781,-5.852 -0.781,-4.586 0,-3.805L4,0.195C4.391,0.586 4.902,0.781 5.414,0.781C5.926,0.781 6.438,0.586 6.828,0.195C7.609,-0.586 7.609,-1.852 6.828,-2.633L2.828,-6.633C2.049,-7.414 0.781,-7.414 0,-6.633" style="fill:rgb(74,224,199);fill-rule:nonzero;"/>
            </g>
        </g>
    </g>
</svg>
