<?xml version="1.0" encoding="UTF-8" standalone="no"?>
<!DOCTYPE svg PUBLIC "-//W3C//DTD SVG 1.1//EN" "http://www.w3.org/Graphics/SVG/1.1/DTD/svg11.dtd">
<svg width="100%" height="100%" viewBox="0 0 94 94" version="1.1" xmlns="http://www.w3.org/2000/svg" xmlns:xlink="http://www.w3.org/1999/xlink" xml:space="preserve" xmlns:serif="http://www.serif.com/" style="fill-rule:evenodd;clip-rule:evenodd;stroke-linejoin:round;stroke-miterlimit:2;">
    <g transform="matrix(1,0,0,1,-1989.51,-9763.93)">
        <g transform="matrix(4.16667,0,0,4.16667,0,0)">
            <g transform="matrix(1,0,0,1,495.611,2347.61)">
                <path d="M0,13.859C-1.851,15.71 -4.312,16.729 -6.929,16.729C-9.547,16.729 -12.008,15.71 -13.859,13.859C-15.71,12.008 -16.729,9.547 -16.729,6.929C-16.729,4.312 -15.71,1.851 -13.858,0.001C-12.008,-1.851 -9.547,-2.87 -6.929,-2.87C-4.312,-2.87 -1.851,-1.851 0,0.001C1.852,1.851 2.871,4.312 2.871,6.929C2.871,9.547 1.852,12.008 0,13.859M-6.929,-4.271C-9.921,-4.271 -12.733,-3.105 -14.849,-0.99C-16.964,1.126 -18.129,3.938 -18.129,6.929C-18.129,9.921 -16.964,12.734 -14.849,14.848C-12.733,16.964 -9.921,18.13 -6.929,18.13C-3.938,18.13 -1.125,16.964 0.99,14.848C3.105,12.734 4.271,9.921 4.271,6.929C4.271,3.938 3.105,1.126 0.99,-0.99C-1.125,-3.105 -3.938,-4.271 -6.929,-4.271" style="fill:white;fill-rule:nonzero;"/>
            </g>
            <g transform="matrix(1,0,0,1,493.857,2347.49)">
                <path d="M0,8.512L-4.476,6.594L-4.476,-0.645C-4.476,-1.031 -4.789,-1.344 -5.175,-1.344C-5.562,-1.344 -5.875,-1.031 -5.875,-0.645L-5.875,7.055C-5.875,7.335 -5.708,7.588 -5.451,7.699L-0.551,9.798C-0.461,9.837 -0.368,9.856 -0.276,9.856C-0.004,9.855 0.254,9.697 0.368,9.431C0.52,9.075 0.355,8.664 0,8.512" style="fill:white;fill-rule:nonzero;"/>
            </g>
            <g transform="matrix(1,0,0,1,481.682,2355.24)">
                <path d="M0,-1.4L-0.7,-1.4C-1.087,-1.4 -1.4,-1.087 -1.4,-0.7C-1.4,-0.313 -1.087,0 -0.7,0L0,0C0.386,0 0.7,-0.313 0.7,-0.7C0.7,-1.087 0.386,-1.4 0,-1.4" style="fill:white;fill-rule:nonzero;"/>
            </g>
            <g transform="matrix(1,0,0,1,494.982,2354.54)">
                <path d="M0,0C0,0.387 0.313,0.7 0.7,0.7L1.4,0.7C1.787,0.7 2.1,0.387 2.1,0C2.1,-0.387 1.787,-0.7 1.4,-0.7L0.7,-0.7C0.313,-0.7 0,-0.387 0,0" style="fill:white;fill-rule:nonzero;"/>
            </g>
            <g transform="matrix(1,0,0,1,488.682,2362.94)">
                <path d="M0,-2.101C-0.387,-2.101 -0.7,-1.788 -0.7,-1.401L-0.7,-0.701C-0.7,-0.314 -0.387,0 0,0C0.386,0 0.7,-0.314 0.7,-0.701L0.7,-1.401C0.7,-1.788 0.386,-2.101 0,-2.101" style="fill:white;fill-rule:nonzero;"/>
            </g>
        </g>
    </g>
</svg>
