<?xml version="1.0" encoding="UTF-8" standalone="no"?>
<!DOCTYPE svg PUBLIC "-//W3C//DTD SVG 1.1//EN" "http://www.w3.org/Graphics/SVG/1.1/DTD/svg11.dtd">
<svg width="100%" height="100%" viewBox="0 0 56 64" version="1.1" xmlns="http://www.w3.org/2000/svg" xmlns:xlink="http://www.w3.org/1999/xlink" xml:space="preserve" xmlns:serif="http://www.serif.com/" style="fill-rule:evenodd;clip-rule:evenodd;stroke-linejoin:round;stroke-miterlimit:2;">
    <g transform="matrix(1,0,0,1,-1346,-1048)">
        <g transform="matrix(1,0,0,1,0,-64.805)">
            <path d="M1350,1120.81L1398,1120.81L1398,1152.81L1350,1152.81L1350,1120.81ZM1400,1156.81C1401.1,1156.81 1402,1155.91 1402,1154.81L1402,1118.81C1402,1117.7 1401.1,1116.81 1400,1116.81L1376,1116.81L1376,1114.81C1376,1113.7 1375.1,1112.81 1374,1112.81C1372.89,1112.81 1372,1113.7 1372,1114.81L1372,1116.81L1348,1116.81C1346.89,1116.81 1346,1117.7 1346,1118.81L1346,1154.81C1346,1155.91 1346.89,1156.81 1348,1156.81L1372,1156.81L1372,1166.98L1365.59,1173.39C1364.8,1174.17 1364.8,1175.44 1365.59,1176.22C1366.37,1177 1367.63,1177 1368.41,1176.22L1372,1172.63L1372,1174.81C1372,1175.91 1372.89,1176.81 1374,1176.81C1375.1,1176.81 1376,1175.91 1376,1174.81L1376,1172.63L1379.59,1176.22C1379.98,1176.61 1380.49,1176.81 1381,1176.81C1381.51,1176.81 1382.02,1176.61 1382.41,1176.22C1383.19,1175.44 1383.19,1174.17 1382.41,1173.39L1376,1166.98L1376,1156.81L1400,1156.81Z" style="fill:rgb(74,224,199);fill-rule:nonzero;"/>
        </g>
    </g>
</svg>
