<?xml version="1.0" encoding="UTF-8" standalone="no"?>
<!DOCTYPE svg PUBLIC "-//W3C//DTD SVG 1.1//EN" "http://www.w3.org/Graphics/SVG/1.1/DTD/svg11.dtd">
<svg width="100%" height="100%" viewBox="0 0 342 413" version="1.1" xmlns="http://www.w3.org/2000/svg" xmlns:xlink="http://www.w3.org/1999/xlink" xml:space="preserve" xmlns:serif="http://www.serif.com/" style="fill-rule:evenodd;clip-rule:evenodd;stroke-linejoin:round;stroke-miterlimit:2;">
    <g transform="matrix(1,0,0,1,-9526.51,-4905.96)">
        <g transform="matrix(8.33333,0,0,8.33333,0,0)">
            <g transform="matrix(1,0,0,1,0,-1882.06)">
                <path d="M1181.18,2517.28L1146.18,2517.28L1146.18,2515.28L1181.18,2515.28L1181.18,2517.28ZM1154.93,2499.91L1172.45,2499.91L1175.31,2512.28L1152.07,2512.28L1154.93,2499.91ZM1160.97,2473.74L1166.41,2473.74L1169.58,2487.47L1157.8,2487.47L1160.97,2473.74ZM1171.76,2496.91L1155.62,2496.91L1157.1,2490.47L1170.27,2490.47L1171.76,2496.91ZM1182.68,2512.28L1178.39,2512.28L1169.07,2471.94C1168.92,2471.26 1168.31,2470.77 1167.61,2470.77L1159.77,2470.78C1159.07,2470.78 1158.46,2471.26 1158.31,2471.94L1148.99,2512.28L1144.68,2512.28C1143.85,2512.28 1143.18,2512.96 1143.18,2513.78L1143.18,2518.78C1143.18,2519.61 1143.85,2520.28 1144.68,2520.28L1182.68,2520.28C1183.51,2520.28 1184.18,2519.61 1184.18,2518.78L1184.18,2513.78C1184.18,2512.96 1183.51,2512.28 1182.68,2512.28" style="fill:rgb(74,224,199);fill-rule:nonzero;"/>
            </g>
        </g>
    </g>
</svg>
