<?xml version="1.0" encoding="UTF-8" standalone="no"?>
<!DOCTYPE svg PUBLIC "-//W3C//DTD SVG 1.1//EN" "http://www.w3.org/Graphics/SVG/1.1/DTD/svg11.dtd">
<svg width="100%" height="100%" viewBox="0 0 416 421" version="1.1" xmlns="http://www.w3.org/2000/svg" xmlns:xlink="http://www.w3.org/1999/xlink" xml:space="preserve" xmlns:serif="http://www.serif.com/" style="fill-rule:evenodd;clip-rule:evenodd;stroke-linejoin:round;stroke-miterlimit:2;">
    <g transform="matrix(1,0,0,1,-6640.88,-6245.82)">
        <g transform="matrix(8.33333,0,0,8.33333,0,0)">
            <g transform="matrix(1,0,0,1,832.209,780.464)">
                <path d="M0,-11.445L0.456,-11.233C1.206,-10.883 2.099,-11.207 2.449,-11.958C2.799,-12.709 2.475,-13.601 1.724,-13.951L-8.952,-18.93L-18.376,-16.11L-19.013,-18.237L5.414,-25.546L11.16,-6.339L4.889,-4.463L0,-11.445ZM4.844,5.77L-5.135,-8.481C-5.61,-9.16 -6.545,-9.324 -7.224,-8.849C-7.902,-8.374 -8.067,-7.438 -7.592,-6.76L4.658,10.735L2.277,12.402L-7.267,-1.229C-7.742,-1.908 -8.678,-2.073 -9.356,-1.597C-10.035,-1.123 -10.2,-0.187 -9.725,0.492L-0.18,14.122L-2.559,15.788L-11.889,2.464C-12.364,1.785 -13.299,1.62 -13.978,2.096C-14.656,2.571 -14.821,3.506 -14.346,4.185L-7.288,14.265L-9.671,15.933L-31.713,-15.548L-14.818,-27.378L-12.066,-23.447L-21.31,-20.681C-22.104,-20.444 -22.554,-19.608 -22.317,-18.814L-20.82,-13.813C-20.583,-13.019 -19.747,-12.569 -18.953,-12.806L-9.183,-15.729L-5.439,-13.983L7.225,4.103L4.844,5.77ZM14.464,-5.762L7.858,-27.843C7.62,-28.636 6.784,-29.088 5.991,-28.85L-9.038,-24.353L-13.223,-30.327C-13.698,-31.005 -14.633,-31.17 -15.312,-30.695L-34.663,-17.145C-35.342,-16.671 -35.507,-15.735 -35.032,-15.056L-16.858,10.899L-11.267,18.882C-10.792,19.561 -9.856,19.725 -9.178,19.25L-5.567,16.722L-4.154,18.738C-3.678,19.415 -2.744,19.58 -2.065,19.105L7.607,12.332C8.286,11.857 8.451,10.921 7.976,10.242L6.564,8.227L10.174,5.701C10.853,5.226 11.018,4.29 10.542,3.612L6.702,-1.874L13.458,-3.895C14.251,-4.133 14.702,-4.968 14.464,-5.762" style="fill:rgb(74,224,199);fill-rule:nonzero;"/>
            </g>
        </g>
    </g>
</svg>
