<?xml version="1.0" encoding="UTF-8" standalone="no"?>
<!DOCTYPE svg PUBLIC "-//W3C//DTD SVG 1.1//EN" "http://www.w3.org/Graphics/SVG/1.1/DTD/svg11.dtd">
<svg width="100%" height="100%" viewBox="0 0 64 64" version="1.1" xmlns="http://www.w3.org/2000/svg" xmlns:xlink="http://www.w3.org/1999/xlink" xml:space="preserve" xmlns:serif="http://www.serif.com/" style="fill-rule:evenodd;clip-rule:evenodd;stroke-linejoin:round;stroke-miterlimit:2;">
    <g transform="matrix(1,0,0,1,-1198,-616)">
        <g>
            <g transform="matrix(1,0,0,1,1254,620.829)">
                <path d="M0,54.342L-15.172,39.171L-12,35.999L3.172,51.171L0,54.342ZM-52,16.171C-52,6.797 -44.374,-0.829 -35,-0.829C-25.626,-0.829 -18,6.797 -18,16.171C-18,25.545 -25.626,33.171 -35,33.171C-44.374,33.171 -52,25.545 -52,16.171M-10.586,31.757C-11.367,30.975 -12.633,30.975 -13.414,31.757L-15,33.342L-18.811,29.531C-15.808,25.898 -14,21.242 -14,16.171C-14,4.591 -23.421,-4.829 -35,-4.829C-46.579,-4.829 -56,4.591 -56,16.171C-56,27.75 -46.579,37.171 -35,37.171C-29.929,37.171 -25.272,35.363 -21.639,32.36L-17.828,36.171L-19.414,37.757C-20.195,38.537 -20.195,39.804 -19.414,40.585L-1.414,58.585C-1.023,58.975 -0.512,59.171 0,59.171C0.512,59.171 1.023,58.975 1.414,58.585L7.414,52.585C8.195,51.804 8.195,50.537 7.414,49.757L-10.586,31.757Z" style="fill:rgb(74,224,199);fill-rule:nonzero;"/>
            </g>
            <g transform="matrix(1,0,0,1,1228,639)">
                <path d="M0,-4L-18,-4C-19.104,-4 -20,-3.104 -20,-2C-20,-0.896 -19.104,0 -18,0L0,0C1.104,0 2,-0.896 2,-2C2,-3.104 1.104,-4 0,-4" style="fill:rgb(74,224,199);fill-rule:nonzero;"/>
            </g>
        </g>
    </g>
</svg>
