<?xml version="1.0" encoding="UTF-8" standalone="no"?>
<!DOCTYPE svg PUBLIC "-//W3C//DTD SVG 1.1//EN" "http://www.w3.org/Graphics/SVG/1.1/DTD/svg11.dtd">
<svg width="100%" height="100%" viewBox="0 0 62 65" version="1.1" xmlns="http://www.w3.org/2000/svg" xmlns:xlink="http://www.w3.org/1999/xlink" xml:space="preserve" xmlns:serif="http://www.serif.com/" style="fill-rule:evenodd;clip-rule:evenodd;stroke-linejoin:round;stroke-miterlimit:2;">
    <g transform="matrix(1,0,0,1,-1342,-1481)">
        <g>
            <g transform="matrix(1,0,0,1,1346,1522.84)">
                <path d="M0,-19.842L10,-19.842C10.531,-19.842 11.039,-20.053 11.414,-20.428L26,-35.014L26,15.33L11.414,0.744C11.039,0.369 10.531,0.158 10,0.158L0,0.158L0,-19.842ZM-2,4.158L9.172,4.158L26.586,21.572C26.969,21.955 27.48,22.158 28,22.158C28.258,22.158 28.518,22.108 28.766,22.006C29.514,21.696 30,20.967 30,20.158L30,-39.842C30,-40.651 29.514,-41.38 28.766,-41.69C28.016,-42 27.158,-41.829 26.586,-41.256L9.172,-23.842L-2,-23.842C-3.104,-23.842 -4,-22.946 -4,-21.842L-4,2.158C-4,3.262 -3.104,4.158 -2,4.158" style="fill:rgb(74,224,199);fill-rule:nonzero;"/>
            </g>
            <g transform="matrix(1,0,0,1,1382,1505)">
                <path d="M0,16C-1.104,16 -2,16.896 -2,18C-2,19.104 -1.104,20 0,20C6.617,20 12,14.617 12,8C12,1.383 6.617,-4 0,-4C-1.104,-4 -2,-3.104 -2,-2C-2,-0.896 -1.104,0 0,0C4.412,0 8,3.589 8,8C8,12.411 4.412,16 0,16" style="fill:rgb(74,224,199);fill-rule:nonzero;"/>
            </g>
            <g transform="matrix(1,0,0,1,1382,1491)">
                <path d="M0,44C12.131,44 22,34.131 22,22C22,9.869 12.131,0 0,0C-1.104,0 -2,0.896 -2,2C-2,3.104 -1.104,4 0,4C9.926,4 18,12.074 18,22C18,31.926 9.926,40 0,40C-1.104,40 -2,40.896 -2,42C-2,43.104 -1.104,44 0,44" style="fill:rgb(74,224,199);fill-rule:nonzero;"/>
            </g>
        </g>
    </g>
</svg>
