<?xml version="1.0" encoding="UTF-8" standalone="no"?>
<!DOCTYPE svg PUBLIC "-//W3C//DTD SVG 1.1//EN" "http://www.w3.org/Graphics/SVG/1.1/DTD/svg11.dtd">
<svg width="100%" height="100%" viewBox="0 0 257 192" version="1.1" xmlns="http://www.w3.org/2000/svg" xmlns:xlink="http://www.w3.org/1999/xlink" xml:space="preserve" xmlns:serif="http://www.serif.com/" style="fill-rule:evenodd;clip-rule:evenodd;stroke-linejoin:round;stroke-miterlimit:2;">
    <g transform="matrix(1,0,0,1,-625.426,-2873.39)">
        <g transform="matrix(4.16667,0,0,4.16667,0,0)">
            <g transform="matrix(6.12323e-17,-1,1,6.12323e-17,-531.721,893.502)">
                <g transform="matrix(1,0,0,1,203.404,718.969)">
                    <path d="M0,-12.715C-1.43,-22.109 -5.87,-30.31 -12.186,-36.496C-13.076,-37.368 -14.505,-37.361 -15.387,-36.48L-15.717,-36.15C-16.607,-35.259 -16.599,-33.818 -15.699,-32.937C-10.125,-27.482 -6.204,-20.249 -4.943,-11.962C-3.074,0.314 -7.458,12.12 -15.699,20.228C-16.596,21.111 -16.606,22.552 -15.716,23.441L-15.39,23.767C-14.504,24.653 -13.069,24.651 -12.177,23.772C-2.845,14.577 2.118,1.198 0,-12.715" style="fill:rgb(69,228,210);fill-rule:nonzero;"/>
                </g>
                <g transform="matrix(1,0,0,1,186.204,716.355)">
                    <path d="M0,-7.483C-0.853,-13.084 -3.523,-17.965 -7.319,-21.623C-8.202,-22.473 -9.615,-22.437 -10.482,-21.57L-10.815,-21.237C-11.701,-20.351 -11.715,-18.899 -10.811,-18.031C-7.77,-15.111 -5.625,-11.212 -4.943,-6.73C-3.937,-0.121 -6.329,6.234 -10.806,10.559C-11.707,11.429 -11.694,12.877 -10.809,13.763L-10.484,14.087C-9.616,14.955 -8.199,14.99 -7.317,14.136C-1.727,8.722 1.258,0.78 0,-7.483" style="fill:rgb(69,228,210);fill-rule:nonzero;"/>
                </g>
                <g transform="matrix(1,0,0,1,166.8,718.52)">
                    <path d="M0,-11.811C-0.9,-12.6 -2.26,-12.553 -3.105,-11.707L-6.25,-8.564L-8.908,-5.906L-6.251,-3.248L-3.106,-0.103C-2.26,0.743 -0.9,0.789 0,0.001C1.644,-1.44 2.686,-3.551 2.686,-5.905C2.686,-8.259 1.645,-10.371 0,-11.811" style="fill:rgb(69,228,210);fill-rule:nonzero;"/>
                </g>
            </g>
        </g>
    </g>
</svg>
