<?xml version="1.0" encoding="UTF-8" standalone="no"?>
<!DOCTYPE svg PUBLIC "-//W3C//DTD SVG 1.1//EN" "http://www.w3.org/Graphics/SVG/1.1/DTD/svg11.dtd">
<svg width="100%" height="100%" viewBox="0 0 184 317" version="1.1" xmlns="http://www.w3.org/2000/svg" xmlns:xlink="http://www.w3.org/1999/xlink" xml:space="preserve" xmlns:serif="http://www.serif.com/" style="fill-rule:evenodd;clip-rule:evenodd;stroke-linejoin:round;stroke-miterlimit:2;">
    <g transform="matrix(1,0,0,1,-2263.56,-22337.1)">
        <g transform="matrix(8.33333,0,0,8.33333,0,0)">
            <g transform="matrix(1,0,0,1,293.081,2717.61)">
                <path d="M0,-36.534C-0.759,-37.338 -2.024,-37.373 -2.827,-36.615L-20.827,-19.615C-21.228,-19.237 -21.454,-18.712 -21.454,-18.161C-21.454,-17.611 -21.228,-17.085 -20.827,-16.707L-2.827,0.293C-2.441,0.657 -1.947,0.839 -1.455,0.839C-0.923,0.839 -0.394,0.628 0,0.212C0.758,-0.591 0.722,-1.857 -0.081,-2.615L-16.542,-18.161L-0.081,-33.707C0.722,-34.466 0.758,-35.731 0,-36.534" style="fill:rgb(72,127,137);fill-rule:nonzero;"/>
            </g>
        </g>
    </g>
</svg>
