<?xml version="1.0" encoding="UTF-8" standalone="no"?>
<!DOCTYPE svg PUBLIC "-//W3C//DTD SVG 1.1//EN" "http://www.w3.org/Graphics/SVG/1.1/DTD/svg11.dtd">
<svg width="100%" height="100%" viewBox="0 0 94 94" version="1.1" xmlns="http://www.w3.org/2000/svg" xmlns:xlink="http://www.w3.org/1999/xlink" xml:space="preserve" xmlns:serif="http://www.serif.com/" style="fill-rule:evenodd;clip-rule:evenodd;stroke-linejoin:round;stroke-miterlimit:2;">
    <g transform="matrix(1,0,0,1,-1047.22,-9763.93)">
        <g transform="matrix(4.16667,0,0,4.16667,0,0)">
            <g transform="matrix(1,0,0,1,259.732,2350.27)">
                <path d="M0,8.469C-0.386,8.469 -0.7,8.782 -0.7,9.169L-0.7,14.069L-3.5,14.069L-3.5,4.269C-3.5,3.882 -3.813,3.569 -4.2,3.569L-6.01,3.569L2.8,-5.241L11.61,3.569L9.8,3.569C9.414,3.569 9.1,3.882 9.1,4.269L9.1,14.069L6.3,14.069L6.3,9.169C6.3,8.782 5.987,8.469 5.6,8.469L0,8.469ZM5.6,15.469L9.8,15.469C10.187,15.469 10.5,15.156 10.5,14.769L10.5,4.969L13.3,4.969C13.583,4.969 13.839,4.798 13.947,4.537C14.055,4.276 13.995,3.975 13.795,3.774L3.295,-6.726C3.021,-7 2.579,-7 2.305,-6.726L-8.195,3.774C-8.395,3.975 -8.455,4.276 -8.347,4.537C-8.238,4.798 -7.983,4.969 -7.7,4.969L-4.9,4.969L-4.9,14.769C-4.9,15.156 -4.586,15.469 -4.2,15.469L0,15.469C0.387,15.469 0.7,15.156 0.7,14.769L0.7,9.869L4.9,9.869L4.9,14.769C4.9,15.156 5.214,15.469 5.6,15.469" style="fill:white;fill-rule:nonzero;"/>
            </g>
        </g>
    </g>
</svg>
