<?xml version="1.0" encoding="UTF-8" standalone="no"?>
<!DOCTYPE svg PUBLIC "-//W3C//DTD SVG 1.1//EN" "http://www.w3.org/Graphics/SVG/1.1/DTD/svg11.dtd">
<svg width="100%" height="100%" viewBox="0 0 89 78" version="1.1" xmlns="http://www.w3.org/2000/svg" xmlns:xlink="http://www.w3.org/1999/xlink" xml:space="preserve" xmlns:serif="http://www.serif.com/" style="fill-rule:evenodd;clip-rule:evenodd;stroke-linejoin:round;stroke-miterlimit:2;">
    <g transform="matrix(1,0,0,1,-238.106,-1599.25)">
        <g transform="matrix(2.66667,0,0,2.66667,0,0)">
            <g transform="matrix(1,0,0,1,120.151,622.6)">
                <path d="M0,-16.64L-2.536,-7.762L-23.112,-6.759C-23.178,-6.756 -23.241,-6.744 -23.303,-6.73L-24.165,-16.64L0,-16.64ZM-20.461,0C-19.314,0 -18.381,0.933 -18.381,2.08C-18.381,3.227 -19.314,4.16 -20.461,4.16C-21.608,4.16 -22.541,3.227 -22.541,2.08C-22.541,0.933 -21.608,0 -20.461,0M-7.981,0C-6.834,0 -5.901,0.933 -5.901,2.08C-5.901,3.227 -6.834,4.16 -7.981,4.16C-9.128,4.16 -10.061,3.227 -10.061,2.08C-10.061,0.933 -9.128,0 -7.981,0M-30.861,-21.84C-30.861,-21.266 -30.396,-20.8 -29.821,-20.8L-26.615,-20.8L-24.621,2.17L-24.621,2.173C-24.621,4.424 -22.726,6.24 -20.463,6.24C-18.529,6.24 -16.902,4.911 -16.438,3.12L-12.004,3.12C-11.541,4.911 -9.916,6.24 -7.981,6.24C-5.687,6.24 -3.821,4.374 -3.821,2.08C-3.821,-0.214 -5.687,-2.08 -7.981,-2.08C-9.916,-2.08 -11.541,-0.751 -12.004,1.04L-16.438,1.04C-16.902,-0.751 -18.527,-2.08 -20.461,-2.08C-21.343,-2.08 -22.16,-1.802 -22.834,-1.332L-23.125,-4.686C-23.104,-4.685 -23.084,-4.68 -23.062,-4.68C-23.045,-4.68 -23.027,-4.68 -23.01,-4.681L-1.69,-5.721C-1.246,-5.743 -0.864,-6.046 -0.741,-6.474L2.379,-17.394C2.469,-17.708 2.406,-18.045 2.209,-18.306C2.013,-18.567 1.706,-18.72 1.379,-18.72L-24.346,-18.72L-24.625,-21.93C-24.672,-22.467 -25.122,-22.88 -25.661,-22.88L-29.821,-22.88C-30.396,-22.88 -30.861,-22.414 -30.861,-21.84" style="fill:rgb(74,224,199);fill-rule:nonzero;"/>
            </g>
        </g>
    </g>
</svg>
