<?xml version="1.0" encoding="UTF-8" standalone="no"?>
<!DOCTYPE svg PUBLIC "-//W3C//DTD SVG 1.1//EN" "http://www.w3.org/Graphics/SVG/1.1/DTD/svg11.dtd">
<svg width="100%" height="100%" viewBox="0 0 408 370" version="1.1" xmlns="http://www.w3.org/2000/svg" xmlns:xlink="http://www.w3.org/1999/xlink" xml:space="preserve" xmlns:serif="http://www.serif.com/" style="fill-rule:evenodd;clip-rule:evenodd;stroke-linejoin:round;stroke-miterlimit:2;">
    <g transform="matrix(1,0,0,1,-6076.21,-4949.63)">
        <g transform="matrix(8.33333,0,0,8.33333,0,0)">
            <g transform="matrix(1,0,0,1,775.045,602.599)">
                <path d="M0,27.042L-12.24,31.938L-12.24,0.044L0,-4.853L0,27.042ZM-42.84,0.044L-30.6,-4.853L-30.6,27.042L-42.84,31.938L-42.84,0.044ZM-27.54,-4.853L-15.3,0.044L-15.3,31.938L-27.54,27.042L-27.54,-4.853ZM2.388,-8.379C1.967,-8.663 1.434,-8.722 0.961,-8.533L-13.77,-2.641L-28.501,-8.533C-28.868,-8.679 -29.272,-8.679 -29.639,-8.533L-44.938,-2.413C-45.519,-2.181 -45.9,-1.618 -45.9,-0.992L-45.9,34.197C-45.9,34.705 -45.648,35.18 -45.228,35.465C-44.971,35.639 -44.672,35.728 -44.37,35.728C-44.178,35.728 -43.985,35.691 -43.801,35.618L-29.07,29.726L-14.338,35.618C-13.972,35.764 -13.567,35.764 -13.201,35.618L2.099,29.498C2.679,29.266 3.06,28.703 3.06,28.078L3.06,-7.112C3.06,-7.62 2.808,-8.095 2.388,-8.379" style="fill:white;fill-rule:nonzero;"/>
            </g>
        </g>
    </g>
</svg>
