<?xml version="1.0" encoding="UTF-8" standalone="no"?>
<!DOCTYPE svg PUBLIC "-//W3C//DTD SVG 1.1//EN" "http://www.w3.org/Graphics/SVG/1.1/DTD/svg11.dtd">
<svg width="100%" height="100%" viewBox="0 0 400 400" version="1.1" xmlns="http://www.w3.org/2000/svg" xmlns:xlink="http://www.w3.org/1999/xlink" xml:space="preserve" xmlns:serif="http://www.serif.com/" style="fill-rule:evenodd;clip-rule:evenodd;stroke-linejoin:round;stroke-miterlimit:2;">
    <g transform="matrix(1,0,0,1,-8951.32,-6227.16)">
        <g transform="matrix(8.33333,0,0,8.33333,0,0)">
            <g transform="matrix(1,0,0,1,1098.16,750.38)">
                <path d="M0,41.76C-0.317,41.76 -0.626,41.727 -0.94,41.713C5.065,32.068 8.134,17.52 8.867,13.68C10.241,13.881 11.456,13.575 12.33,12.877C14.612,15.814 18.948,22.017 19.735,27.652C16.921,35.855 9.158,41.76 0,41.76M-20.526,24.628C-14.002,15.642 0.244,10.449 3.419,9.38C3.923,10.619 4.86,11.738 6.027,12.541C5.57,15.006 2.274,31.774 -4.271,41.32C-12.547,39.599 -19.011,32.977 -20.526,24.628M-6.128,0.918C-2.819,1.711 1.331,3.776 3.727,5.064C3.462,5.432 3.251,5.845 3.134,6.317C2.021,6.659 -12.442,11.254 -20.852,20.325C-20.61,11.172 -14.498,3.485 -6.128,0.918M6.955,3.425C6.146,2.955 3.402,1.403 0.249,0.013C2.613,0.041 4.876,0.473 6.989,1.225L6.955,3.425ZM11.133,5.011C10.764,4.715 10.364,4.46 9.943,4.239L9.97,2.531C11.179,3.189 12.313,3.965 13.361,4.84C12.332,4.862 11.627,4.917 11.133,5.011M8.335,10.889C7.003,10.576 5.923,9.317 5.923,8.075C5.922,6.834 7.001,6.081 8.333,6.394C9.665,6.706 10.745,7.966 10.746,9.207C10.746,10.448 9.667,11.201 8.335,10.889M20.88,20.88C20.88,20.954 20.87,21.026 20.869,21.1C18.606,15.934 15.064,11.425 13.714,9.802C13.704,9.143 13.563,8.482 13.306,7.849C13.991,7.832 14.961,7.828 16.302,7.853C19.161,11.425 20.88,15.949 20.88,20.88M0,-3.12C-13.255,-3.12 -24,7.625 -24,20.88C-24,34.135 -13.255,44.88 0,44.88C13.255,44.88 24,34.135 24,20.88C24,7.625 13.255,-3.12 0,-3.12" style="fill:rgb(74,224,199);fill-rule:nonzero;"/>
            </g>
        </g>
    </g>
</svg>
