<?xml version="1.0" encoding="UTF-8" standalone="no"?>
<!DOCTYPE svg PUBLIC "-//W3C//DTD SVG 1.1//EN" "http://www.w3.org/Graphics/SVG/1.1/DTD/svg11.dtd">
<svg width="100%" height="100%" viewBox="0 0 64 64" version="1.1" xmlns="http://www.w3.org/2000/svg" xmlns:xlink="http://www.w3.org/1999/xlink" xml:space="preserve" xmlns:serif="http://www.serif.com/" style="fill-rule:evenodd;clip-rule:evenodd;stroke-linejoin:round;stroke-miterlimit:2;">
    <g transform="matrix(1,0,0,1,-910,-1192.83)">
        <g>
            <g transform="matrix(1,0,0,1,914,1196.97)">
                <path d="M0,55.032L0,51.032L4,51.032C5.104,51.032 6,50.136 6,49.032C6,47.928 5.104,47.032 4,47.032L0,47.032L0,43.032L2,43.032C3.104,43.032 4,42.136 4,41.032C4,39.928 3.104,39.032 2,39.032L0,39.032L0,35.032L4,35.032C5.104,35.032 6,34.136 6,33.032C6,31.928 5.104,31.032 4,31.032L0,31.032L0,27.032L2,27.032C3.104,27.032 4,26.136 4,25.032C4,23.928 3.104,23.032 2,23.032L0,23.032L0,19.032L4,19.032C5.104,19.032 6,18.136 6,17.032C6,15.928 5.104,15.032 4,15.032L0,15.032L0,2.032L53.169,55.032L0,55.032ZM-1.398,-4C-2.651,-4 -4,-3.052 -4,-0.968L-4,55.032C-4,57.238 -2.206,59.032 0,59.032L56,59.032C57.95,59.032 58.639,57.878 58.845,57.382C59.05,56.886 59.379,55.583 58,54.204L0.828,-2.968C-0.025,-3.822 -0.854,-4 -1.398,-4" style="fill:rgb(74,224,199);fill-rule:nonzero;"/>
            </g>
            <g transform="matrix(1,0,0,1,926,1242.14)">
                <path d="M0,-19.308L21.169,1.862L-0.001,1.862L0,-19.308ZM-0.001,5.862L23.999,5.862C25.949,5.862 26.638,4.708 26.844,4.212C27.049,3.715 27.378,2.413 25.999,1.034L0.827,-24.138C-0.026,-24.992 -0.854,-25.17 -1.399,-25.17C-2.652,-25.17 -4.001,-24.222 -4.001,-22.138L-4.001,1.862C-4.001,4.068 -2.207,5.862 -0.001,5.862" style="fill:rgb(74,224,199);fill-rule:nonzero;"/>
            </g>
            <g transform="matrix(1,0,0,1,934,1235.58)">
                <path d="M0,-38.749L3.172,-35.577L0,-32.405L-3.172,-35.577L0,-38.749ZM34.545,-3.152L35.251,-0.326L32.425,-1.032C31.704,-1.212 30.526,-1.88 30,-2.405L2.828,-29.577L6,-32.749L33.172,-5.577C33.697,-5.051 34.365,-3.873 34.545,-3.152M31.456,2.849L35.575,3.878C35.892,3.957 36.207,3.997 36.513,3.997L36.514,3.997C37.488,3.997 38.371,3.583 38.936,2.86C39.539,2.088 39.724,1.071 39.455,-0.002L38.426,-4.121C38.073,-5.533 37.03,-7.375 36,-8.405L2.828,-41.577C2.074,-42.331 1.07,-42.746 0,-42.746C-1.07,-42.746 -2.074,-42.331 -2.828,-41.577L-6,-38.405C-7.56,-36.846 -7.56,-34.309 -6,-32.749L27.172,0.423C28.202,1.453 30.044,2.496 31.456,2.849" style="fill:rgb(74,224,199);fill-rule:nonzero;"/>
            </g>
        </g>
    </g>
</svg>
