<?xml version="1.0" encoding="UTF-8" standalone="no"?>
<!DOCTYPE svg PUBLIC "-//W3C//DTD SVG 1.1//EN" "http://www.w3.org/Graphics/SVG/1.1/DTD/svg11.dtd">
<svg width="100%" height="100%" viewBox="0 0 482 378" version="1.1" xmlns="http://www.w3.org/2000/svg" xmlns:xlink="http://www.w3.org/1999/xlink" xml:space="preserve" xmlns:serif="http://www.serif.com/" style="fill-rule:evenodd;clip-rule:evenodd;stroke-linejoin:round;stroke-miterlimit:2;">
    <g transform="matrix(1,0,0,1,-7781.59,-6238.22)">
        <g transform="matrix(8.33333,0,0,8.33333,0,0)">
            <g transform="matrix(1,0,0,1,971.399,751.539)">
                <path d="M0,30.673C-0.003,30.673 -0.005,30.674 -0.008,30.674C-0.393,30.721 -0.778,30.736 -1.163,30.735C-1.216,30.735 -1.268,30.74 -1.32,30.738C-1.668,30.733 -2.016,30.698 -2.363,30.654C-2.633,30.617 -2.903,30.565 -3.173,30.505C-3.229,30.492 -3.284,30.482 -3.339,30.469C-4.274,30.244 -5.21,29.885 -6.145,29.388C-7.03,28.916 -7.916,28.565 -8.803,28.283C-8.908,28.251 -9.01,28.208 -9.115,28.179C-11.004,27.629 -12.894,27.521 -14.783,27.842C-15.161,27.901 -15.536,27.971 -15.906,28.062C-15.912,28.063 -15.918,28.065 -15.924,28.067C-17.154,28.368 -18.345,28.842 -19.511,29.465C-20.09,29.775 -20.671,30.02 -21.253,30.215C-21.338,30.241 -21.423,30.274 -21.508,30.299C-21.692,30.355 -21.875,30.4 -22.06,30.445C-22.382,30.521 -22.705,30.589 -23.027,30.632C-23.065,30.637 -23.104,30.646 -23.142,30.651C-24.005,30.756 -24.867,30.747 -25.728,30.62C-25.73,30.62 -25.732,30.619 -25.735,30.619C-26.929,30.443 -28.122,30.032 -29.315,29.411L-29.302,29.411L-15.658,18.046L-19.087,2.694L-34.014,6.029L-34.388,4.306L-15.887,0.167L2.878,29.882C1.919,30.293 0.959,30.557 0,30.673M10.218,27.691C8.571,27.699 7.023,28.05 5.533,28.641L-3.084,14.981L-13.962,-2.272C-14.29,-2.793 -14.91,-3.051 -15.511,-2.917L-36.471,1.775C-37.255,1.95 -37.749,2.729 -37.573,3.513L-36.553,8.068C-36.378,8.852 -35.6,9.346 -34.815,9.17L-21.323,6.151L-18.873,16.925L-32.343,28.152C-33.482,27.835 -34.661,27.671 -35.883,27.696C-36.741,27.714 -37.363,28.292 -37.411,29.088C-37.459,29.867 -36.867,30.647 -36.051,30.626C-33.765,30.569 -31.798,31.453 -29.827,32.459C-27.937,33.423 -25.949,33.724 -23.918,33.646C-23.66,33.638 -23.402,33.617 -23.145,33.594C-22.985,33.581 -22.826,33.571 -22.666,33.554C-22.645,33.552 -22.625,33.549 -22.604,33.546C-22.289,33.51 -21.972,33.469 -21.655,33.418C-19.939,33.147 -18.47,32.252 -16.916,31.557C-16.193,31.233 -15.469,30.993 -14.745,30.836C-13.855,30.669 -12.973,30.602 -12.104,30.647C-12.086,30.648 -12.068,30.649 -12.05,30.651C-11.793,30.665 -11.539,30.692 -11.284,30.726C-10.341,30.864 -9.398,31.144 -8.458,31.561C-8.213,31.675 -7.968,31.796 -7.727,31.934C-5.855,32.998 -3.853,33.615 -1.729,33.631C-1.34,33.652 -0.952,33.643 -0.565,33.629C-0.448,33.628 -0.331,33.628 -0.215,33.623C-0.113,33.616 -0.011,33.611 0.091,33.603C1.849,33.486 3.499,32.985 5.058,32.134C6.681,31.249 8.373,30.652 10.249,30.643C11.322,30.638 12.032,29.989 11.997,29.121C11.962,28.241 11.279,27.685 10.218,27.691" style="fill:white;fill-rule:nonzero;"/>
            </g>
            <g transform="matrix(1,0,0,1,968.227,791.009)">
                <path d="M0,-0.236C-0.056,-0.248 -0.111,-0.258 -0.166,-0.272C-1.102,-0.496 -2.037,-0.856 -2.972,-1.353C-3.857,-1.825 -4.743,-2.176 -5.63,-2.457C-5.735,-2.489 -5.837,-2.532 -5.942,-2.561C-7.831,-3.111 -9.721,-3.22 -11.61,-2.899C-11.988,-2.84 -12.363,-2.769 -12.733,-2.679C-12.739,-2.677 -12.745,-2.675 -12.751,-2.674C-13.981,-2.372 -15.172,-1.899 -16.338,-1.275C-16.917,-0.965 -17.498,-0.721 -18.08,-0.526C-18.165,-0.499 -18.25,-0.466 -18.335,-0.442C-18.519,-0.385 -18.703,-0.34 -18.887,-0.296C-19.209,-0.219 -19.532,-0.152 -19.854,-0.109C-19.893,-0.103 -19.931,-0.095 -19.969,-0.09C-20.833,0.015 -21.694,0.006 -22.555,-0.121C-22.557,-0.121 -22.56,-0.121 -22.562,-0.122C-23.867,-0.314 -25.17,-0.773 -26.475,-1.498C-28.407,-2.57 -30.494,-3.09 -32.71,-3.045C-33.568,-3.027 -34.19,-2.448 -34.238,-1.653C-34.286,-0.873 -33.694,-0.093 -32.878,-0.114C-30.592,-0.172 -28.625,0.712 -26.654,1.718C-24.765,2.682 -22.776,2.984 -20.746,2.905C-20.487,2.898 -20.229,2.876 -19.972,2.854C-19.812,2.84 -19.653,2.831 -19.493,2.814C-19.472,2.811 -19.452,2.808 -19.432,2.805C-19.116,2.77 -18.799,2.729 -18.482,2.678C-16.767,2.406 -15.297,1.512 -13.743,0.817C-13.02,0.493 -12.296,0.252 -11.572,0.096C-10.683,-0.071 -9.8,-0.139 -8.931,-0.094C-8.913,-0.093 -8.895,-0.091 -8.877,-0.09C-8.621,-0.076 -8.366,-0.049 -8.111,-0.015C-7.168,0.124 -6.226,0.404 -5.285,0.82C-5.04,0.935 -4.795,1.055 -4.554,1.193C-2.683,2.257 -0.68,2.875 1.443,2.891C1.833,2.91 2.221,2.903 2.607,2.889C2.725,2.887 2.842,2.887 2.958,2.882C3.06,2.876 3.162,2.871 3.264,2.863C5.021,2.745 6.672,2.243 8.23,1.394C9.854,0.509 11.546,-0.09 13.422,-0.097C14.495,-0.102 15.205,-0.751 15.17,-1.62C15.135,-2.499 14.452,-3.055 13.391,-3.05C11.104,-3.038 9.005,-2.374 6.991,-1.308C5.719,-0.634 4.445,-0.222 3.173,-0.067C3.17,-0.067 3.168,-0.067 3.165,-0.066C2.78,-0.02 2.395,-0.004 2.01,-0.005C1.957,-0.006 1.905,-0.001 1.853,-0.002" style="fill:white;fill-rule:nonzero;"/>
            </g>
            <g transform="matrix(1,0,0,1,980.949,753.204)">
                <path d="M0,15.433C-4.262,15.433 -7.716,11.978 -7.716,7.717C-7.716,3.455 -4.262,0.001 0,0.001C4.262,0.001 7.716,3.455 7.716,7.717C7.716,11.978 4.262,15.433 0,15.433M0,-2.913C-5.871,-2.913 -10.63,1.846 -10.63,7.717C-10.63,13.587 -5.871,18.346 0,18.346C5.87,18.346 10.63,13.587 10.63,7.717C10.63,1.846 5.87,-2.913 0,-2.913" style="fill:white;fill-rule:nonzero;"/>
            </g>
        </g>
    </g>
</svg>
