<?xml version="1.0" encoding="UTF-8" standalone="no"?>
<!DOCTYPE svg PUBLIC "-//W3C//DTD SVG 1.1//EN" "http://www.w3.org/Graphics/SVG/1.1/DTD/svg11.dtd">
<svg width="100%" height="100%" viewBox="0 0 64 64" version="1.1" xmlns="http://www.w3.org/2000/svg" xmlns:xlink="http://www.w3.org/1999/xlink" xml:space="preserve" xmlns:serif="http://www.serif.com/" style="fill-rule:evenodd;clip-rule:evenodd;stroke-linejoin:round;stroke-miterlimit:2;">
    <g transform="matrix(1,0,0,1,-1342,-616)">
        <g>
            <g transform="matrix(1,0,0,1,1363,676)">
                <path d="M0,-56C9.374,-56 17,-48.374 17,-39C17,-29.626 9.374,-22 0,-22C-9.374,-22 -17,-29.626 -17,-39C-17,-48.374 -9.374,-56 0,-56M38.172,-4L35,-0.829L19.828,-16L23,-19.171L38.172,-4ZM0,-18C5.071,-18 9.728,-19.808 13.361,-22.811L17.172,-19L15.586,-17.414C14.805,-16.633 14.805,-15.367 15.586,-14.586L33.586,3.414C33.977,3.805 34.488,4 35,4C35.512,4 36.023,3.805 36.414,3.414L42.414,-2.586C43.195,-3.367 43.195,-4.633 42.414,-5.414L24.414,-23.414C23.633,-24.195 22.367,-24.195 21.586,-23.414L20,-21.828L16.189,-25.639C19.192,-29.272 21,-33.929 21,-39C21,-50.58 11.579,-60 0,-60C-11.579,-60 -21,-50.58 -21,-39C-21,-27.42 -11.579,-18 0,-18" style="fill:rgb(74,224,199);fill-rule:nonzero;"/>
            </g>
            <g transform="matrix(1,0,0,1,1354,635)">
                <path d="M0,4L7,4L7,11C7,12.104 7.896,13 9,13C10.104,13 11,12.104 11,11L11,4L18,4C19.104,4 20,3.104 20,2C20,0.896 19.104,0 18,0L11,0L11,-7C11,-8.104 10.104,-9 9,-9C7.896,-9 7,-8.104 7,-7L7,0L0,0C-1.104,0 -2,0.896 -2,2C-2,3.104 -1.104,4 0,4" style="fill:rgb(74,224,199);fill-rule:nonzero;"/>
            </g>
        </g>
    </g>
</svg>
