<?xml version="1.0" encoding="UTF-8" standalone="no"?>
<!DOCTYPE svg PUBLIC "-//W3C//DTD SVG 1.1//EN" "http://www.w3.org/Graphics/SVG/1.1/DTD/svg11.dtd">
<svg width="100%" height="100%" viewBox="0 0 34 59" version="1.1" xmlns="http://www.w3.org/2000/svg" xmlns:xlink="http://www.w3.org/1999/xlink" xml:space="preserve" xmlns:serif="http://www.serif.com/" style="fill-rule:evenodd;clip-rule:evenodd;stroke-linejoin:round;stroke-miterlimit:2;">
    <g transform="matrix(1,0,0,1,-14752.3,-9282.53)">
        <g transform="matrix(4.16667,0,0,4.16667,0,0)">
            <g transform="matrix(1,0,0,1,3547.43,2228.09)">
                <path d="M0,13.523C0.296,13.802 0.763,13.79 1.042,13.494C1.321,13.198 1.309,12.731 1.013,12.452L-5.054,6.723L1.013,0.994C1.309,0.714 1.321,0.249 1.042,-0.047C0.897,-0.202 0.702,-0.279 0.506,-0.279C0.324,-0.279 0.143,-0.212 0,-0.078L-6.633,6.187C-6.78,6.326 -6.863,6.52 -6.863,6.723C-6.863,6.925 -6.78,7.12 -6.633,7.258L0,13.523Z" style="fill:rgb(69,228,210);fill-rule:nonzero;"/>
            </g>
        </g>
    </g>
</svg>
