<?xml version="1.0" encoding="UTF-8" standalone="no"?>
<!DOCTYPE svg PUBLIC "-//W3C//DTD SVG 1.1//EN" "http://www.w3.org/Graphics/SVG/1.1/DTD/svg11.dtd">
<svg width="100%" height="100%" viewBox="0 0 64 48" version="1.1" xmlns="http://www.w3.org/2000/svg" xmlns:xlink="http://www.w3.org/1999/xlink" xml:space="preserve" xmlns:serif="http://www.serif.com/" style="fill-rule:evenodd;clip-rule:evenodd;stroke-linejoin:round;stroke-miterlimit:2;">
    <g transform="matrix(1,0,0,1,-1197,-1921)">
        <g>
            <g transform="matrix(1,0,0,1,0,1665)">
                <path d="M1257,300L1201,300L1201,268L1257,268L1257,300ZM1220,260L1238,260L1238,264L1220,264L1220,260ZM1259,264L1242,264L1242,258C1242,256.896 1241.11,256 1240,256L1218,256C1216.9,256 1216,256.896 1216,258L1216,264L1199,264C1197.9,264 1197,264.896 1197,266L1197,302C1197,303.104 1197.9,304 1199,304L1259,304C1260.11,304 1261,303.104 1261,302L1261,266C1261,264.896 1260.11,264 1259,264" style="fill:rgb(74,224,199);fill-rule:nonzero;"/>
            </g>
            <g transform="matrix(1,0,0,1,1231,1951)">
                <path d="M0,-4L0,-12C0,-13.104 -0.895,-14 -2,-14C-3.104,-14 -4,-13.104 -4,-12L-4,-4L-12,-4C-13.104,-4 -14,-3.104 -14,-2C-14,-0.896 -13.104,0 -12,0L-4,0L-4,8C-4,9.104 -3.104,10 -2,10C-0.895,10 0,9.104 0,8L0,0L8,0C9.105,0 10,-0.896 10,-2C10,-3.104 9.105,-4 8,-4L0,-4Z" style="fill:rgb(74,224,199);fill-rule:nonzero;"/>
            </g>
        </g>
    </g>
</svg>
