<?xml version="1.0" encoding="UTF-8" standalone="no"?>
<!DOCTYPE svg PUBLIC "-//W3C//DTD SVG 1.1//EN" "http://www.w3.org/Graphics/SVG/1.1/DTD/svg11.dtd">
<svg width="100%" height="100%" viewBox="0 0 88 88" version="1.1" xmlns="http://www.w3.org/2000/svg" xmlns:xlink="http://www.w3.org/1999/xlink" xml:space="preserve" xmlns:serif="http://www.serif.com/" style="fill-rule:evenodd;clip-rule:evenodd;stroke-linejoin:round;stroke-miterlimit:2;">
    <g transform="matrix(1,0,0,1,-238.69,-2137.35)">
        <g transform="matrix(2.66667,0,0,2.66667,0,0)">
            <g transform="matrix(1,0,0,1,91.8398,822.027)">
                <path d="M0,-8.209C0.879,-11.158 4.067,-18.469 14.084,-18.469C24.103,-18.469 27.291,-11.158 28.169,-8.209L0,-8.209ZM14.084,-20.521C0.04,-20.521 -2.295,-7.483 -2.317,-7.351C-2.367,-7.054 -2.283,-6.75 -2.088,-6.52C-1.893,-6.289 -1.607,-6.156 -1.305,-6.156L13.059,-6.156L13.059,9.233C13.059,10.931 14.439,12.312 16.137,12.312C17.834,12.312 19.214,10.931 19.214,9.233C19.214,8.667 18.756,8.207 18.188,8.207C17.623,8.207 17.163,8.667 17.163,9.233C17.163,9.8 16.703,10.26 16.137,10.26C15.571,10.26 15.11,9.8 15.11,9.233L15.11,-6.156L29.475,-6.156C29.479,-6.157 29.481,-6.156 29.485,-6.156C30.052,-6.156 30.511,-6.616 30.511,-7.183C30.511,-7.303 30.491,-7.418 30.453,-7.525C30.121,-9.085 27.238,-20.521 14.084,-20.521" style="fill:rgb(74,224,199);fill-rule:nonzero;"/>
            </g>
        </g>
    </g>
</svg>
